# flashlight, converted from glb
v 23.384932 -0.417913 -0.000007
v 23.384932 -0.359321 0.218662
v 23.462046 0.019424 -0.000007
v 23.384932 -0.359321 0.218662
v 23.384932 -0.199245 0.378740
v 23.462046 0.019424 -0.000007
v 23.384932 -0.199245 0.378740
v 23.384932 0.019424 0.437330
v 23.462046 0.019424 -0.000007
v 23.384932 0.019424 0.437330
v 23.384932 0.238093 0.378740
v 23.462046 0.019424 -0.000007
v 23.384932 0.238093 0.378740
v 23.384932 0.398169 0.218662
v 23.462046 0.019424 -0.000007
v 23.384932 0.398169 0.218662
v 23.384932 0.456761 -0.000007
v 23.462046 0.019424 -0.000007
v 23.384932 0.456761 -0.000007
v 23.384932 0.398169 -0.218675
v 23.462046 0.019424 -0.000007
v 23.384932 0.398169 -0.218675
v 23.384932 0.238092 -0.378753
v 23.462046 0.019424 -0.000007
v 23.384932 0.238092 -0.378753
v 23.384932 0.019424 -0.437343
v 23.462046 0.019424 -0.000007
v 23.384932 0.019424 -0.437343
v 23.384932 -0.199245 -0.378753
v 23.462046 0.019424 -0.000007
v 23.384932 -0.199245 -0.378753
v 23.384932 -0.359321 -0.218675
v 23.462046 0.019424 -0.000007
v 23.384932 -0.359321 -0.218675
v 23.384932 -0.417913 -0.000007
v 23.462046 0.019424 -0.000007
v 23.162889 -0.802501 -0.000007
v 23.162889 -0.692384 0.410954
v 23.384932 -0.359321 0.218662
v 23.384932 -0.417913 -0.000007
v 23.162889 -0.692384 0.410954
v 23.162889 -0.391539 0.711803
v 23.384932 -0.199245 0.378740
v 23.384932 -0.359321 0.218662
v 23.162889 -0.391539 0.711803
v 23.162889 0.019424 0.821920
v 23.384932 0.019424 0.437330
v 23.384932 -0.199245 0.378740
v 23.162889 0.019424 0.821920
v 23.162889 0.430387 0.711803
v 23.384932 0.238093 0.378740
v 23.384932 0.019424 0.437330
v 23.162889 0.430387 0.711803
v 23.162889 0.731232 0.410954
v 23.384932 0.398169 0.218662
v 23.384932 0.238093 0.378740
v 23.162889 0.731232 0.410954
v 23.162889 0.841349 -0.000007
v 23.384932 0.456761 -0.000007
v 23.384932 0.398169 0.218662
v 23.162889 0.841349 -0.000007
v 23.162889 0.731232 -0.410967
v 23.384932 0.398169 -0.218675
v 23.384932 0.456761 -0.000007
v 23.162889 0.731232 -0.410967
v 23.162889 0.430387 -0.711816
v 23.384932 0.238092 -0.378753
v 23.384932 0.398169 -0.218675
v 23.162889 0.430387 -0.711816
v 23.162889 0.019424 -0.821933
v 23.384932 0.019424 -0.437343
v 23.384932 0.238092 -0.378753
v 23.162889 0.019424 -0.821933
v 23.162889 -0.391539 -0.711816
v 23.384932 -0.199245 -0.378753
v 23.384932 0.019424 -0.437343
v 23.162889 -0.391539 -0.711816
v 23.162889 -0.692384 -0.410967
v 23.384932 -0.359321 -0.218675
v 23.384932 -0.199245 -0.378753
v 23.162889 -0.692384 -0.410967
v 23.162889 -0.802501 -0.000007
v 23.384932 -0.417913 -0.000007
v 23.384932 -0.359321 -0.218675
v 22.822701 -1.087953 -0.000007
v 22.822701 -0.939592 0.553681
v 23.162889 -0.692384 0.410954
v 23.162889 -0.802501 -0.000007
v 22.822701 -0.939592 0.553681
v 22.822701 -0.534264 0.959011
v 23.162889 -0.391539 0.711803
v 23.162889 -0.692384 0.410954
v 22.822701 -0.534264 0.959011
v 22.822701 0.019424 1.107368
v 23.162889 0.019424 0.821920
v 23.162889 -0.391539 0.711803
v 22.822701 0.019424 1.107368
v 22.822701 0.573112 0.959011
v 23.162889 0.430387 0.711803
v 23.162889 0.019424 0.821920
v 22.822701 0.573112 0.959011
v 22.822701 0.978441 0.553681
v 23.162889 0.731232 0.410954
v 23.162889 0.430387 0.711803
v 22.822701 0.978441 0.553681
v 22.822701 1.126801 -0.000007
v 23.162889 0.841349 -0.000007
v 23.162889 0.731232 0.410954
v 22.822701 1.126801 -0.000007
v 22.822701 0.978440 -0.553694
v 23.162889 0.731232 -0.410967
v 23.162889 0.841349 -0.000007
v 22.822701 0.978440 -0.553694
v 22.822701 0.573112 -0.959025
v 23.162889 0.430387 -0.711816
v 23.162889 0.731232 -0.410967
v 22.822701 0.573112 -0.959025
v 22.822701 0.019424 -1.107382
v 23.162889 0.019424 -0.821933
v 23.162889 0.430387 -0.711816
v 22.822701 0.019424 -1.107382
v 22.822701 -0.534264 -0.959025
v 23.162889 -0.391539 -0.711816
v 23.162889 0.019424 -0.821933
v 22.822701 -0.534264 -0.959025
v 22.822701 -0.939592 -0.553694
v 23.162889 -0.692384 -0.410967
v 23.162889 -0.391539 -0.711816
v 22.822701 -0.939592 -0.553694
v 22.822701 -1.087953 -0.000007
v 23.162889 -0.802501 -0.000007
v 23.162889 -0.692384 -0.410967
v 22.405399 -1.239839 -0.000007
v 22.405399 -1.071130 0.629622
v 22.822701 -0.939592 0.553681
v 22.822701 -1.087953 -0.000007
v 22.405399 -1.071130 0.629622
v 22.405399 -0.610207 1.090545
v 22.822701 -0.534264 0.959011
v 22.822701 -0.939592 0.553681
v 22.405399 -0.610207 1.090545
v 22.405399 0.019424 1.259256
v 22.822701 0.019424 1.107368
v 22.822701 -0.534264 0.959011
v 22.405399 0.019424 1.259256
v 22.405399 0.649055 1.090545
v 22.822701 0.573112 0.959011
v 22.822701 0.019424 1.107368
v 22.405399 0.649055 1.090545
v 22.405399 1.109977 0.629627
v 22.822701 0.978441 0.553681
v 22.822701 0.573112 0.959011
v 22.405399 1.109977 0.629627
v 22.405399 1.278687 -0.000007
v 22.822701 1.126801 -0.000007
v 22.822701 0.978441 0.553681
v 22.405399 1.278687 -0.000007
v 22.405399 1.109977 -0.629640
v 22.822701 0.978440 -0.553694
v 22.822701 1.126801 -0.000007
v 22.405399 1.109977 -0.629640
v 22.405399 0.649055 -1.090558
v 22.822701 0.573112 -0.959025
v 22.822701 0.978440 -0.553694
v 22.405399 0.649055 -1.090558
v 22.405399 0.019424 -1.259269
v 22.822701 0.019424 -1.107382
v 22.822701 0.573112 -0.959025
v 22.405399 0.019424 -1.259269
v 22.405399 -0.610207 -1.090558
v 22.822701 -0.534264 -0.959025
v 22.822701 0.019424 -1.107382
v 22.405399 -0.610207 -1.090558
v 22.405399 -1.071130 -0.629635
v 22.822701 -0.939592 -0.553694
v 22.822701 -0.534264 -0.959025
v 22.405399 -1.071130 -0.629635
v 22.405399 -1.239839 -0.000007
v 22.822701 -1.087953 -0.000007
v 22.822701 -0.939592 -0.553694
v 21.961315 -1.239838 -0.000007
v 21.961315 -1.071130 0.629622
v 22.405399 -1.071130 0.629622
v 22.405399 -1.239839 -0.000007
v 21.961315 -1.071130 0.629622
v 21.961315 -0.610207 1.090545
v 22.405399 -0.610207 1.090545
v 22.405399 -1.071130 0.629622
v 21.961315 -0.610207 1.090545
v 21.961315 0.019424 1.259256
v 22.405399 0.019424 1.259256
v 22.405399 -0.610207 1.090545
v 21.961315 0.019424 1.259256
v 21.961315 0.649055 1.090545
v 22.405399 0.649055 1.090545
v 22.405399 0.019424 1.259256
v 21.961315 0.649055 1.090545
v 21.961315 1.109977 0.629622
v 22.405399 1.109977 0.629627
v 22.405399 0.649055 1.090545
v 21.961315 1.109977 0.629622
v 21.961315 1.278687 -0.000007
v 22.405399 1.278687 -0.000007
v 22.405399 1.109977 0.629627
v 21.961315 1.278687 -0.000007
v 21.961315 1.109977 -0.629640
v 22.405399 1.109977 -0.629640
v 22.405399 1.278687 -0.000007
v 21.961315 1.109977 -0.629640
v 21.961315 0.649055 -1.090558
v 22.405399 0.649055 -1.090558
v 22.405399 1.109977 -0.629640
v 21.961315 0.649055 -1.090558
v 21.961315 0.019424 -1.259269
v 22.405399 0.019424 -1.259269
v 22.405399 0.649055 -1.090558
v 21.961315 0.019424 -1.259269
v 21.961315 -0.610207 -1.090558
v 22.405399 -0.610207 -1.090558
v 22.405399 0.019424 -1.259269
v 21.961315 -0.610207 -1.090558
v 21.961315 -1.071130 -0.629635
v 22.405399 -1.071130 -0.629635
v 22.405399 -0.610207 -1.090558
v 21.961315 -1.071130 -0.629635
v 21.961315 -1.239838 -0.000007
v 22.405399 -1.239839 -0.000007
v 22.405399 -1.071130 -0.629635
v 21.544013 -1.087953 -0.000007
v 21.544013 -0.939592 0.553681
v 21.961315 -1.071130 0.629622
v 21.961315 -1.239838 -0.000007
v 21.544013 -0.939592 0.553681
v 21.544013 -0.534264 0.959011
v 21.961315 -0.610207 1.090545
v 21.961315 -1.071130 0.629622
v 21.544013 -0.534264 0.959011
v 21.544013 0.019424 1.107368
v 21.961315 0.019424 1.259256
v 21.961315 -0.610207 1.090545
v 21.544013 0.019424 1.107368
v 21.544013 0.573112 0.959011
v 21.961315 0.649055 1.090545
v 21.961315 0.019424 1.259256
v 21.544013 0.573112 0.959011
v 21.544013 0.978441 0.553681
v 21.961315 1.109977 0.629622
v 21.961315 0.649055 1.090545
v 21.544013 0.978441 0.553681
v 21.544013 1.126801 -0.000007
v 21.961315 1.278687 -0.000007
v 21.961315 1.109977 0.629622
v 21.544013 1.126801 -0.000007
v 21.544013 0.978440 -0.553694
v 21.961315 1.109977 -0.629640
v 21.961315 1.278687 -0.000007
v 21.544013 0.978440 -0.553694
v 21.544013 0.573112 -0.959025
v 21.961315 0.649055 -1.090558
v 21.961315 1.109977 -0.629640
v 21.544013 0.573112 -0.959025
v 21.544013 0.019424 -1.107382
v 21.961315 0.019424 -1.259269
v 21.961315 0.649055 -1.090558
v 21.544013 0.019424 -1.107382
v 21.544013 -0.534264 -0.959025
v 21.961315 -0.610207 -1.090558
v 21.961315 0.019424 -1.259269
v 21.544013 -0.534264 -0.959025
v 21.544013 -0.939592 -0.553694
v 21.961315 -1.071130 -0.629635
v 21.961315 -0.610207 -1.090558
v 21.544013 -0.939592 -0.553694
v 21.544013 -1.087953 -0.000007
v 21.961315 -1.239838 -0.000007
v 21.961315 -1.071130 -0.629635
v 21.203825 -0.802501 -0.000007
v 21.203825 -0.692384 0.410954
v 21.544013 -0.939592 0.553681
v 21.544013 -1.087953 -0.000007
v 21.203825 -0.692384 0.410954
v 21.203825 -0.391539 0.711803
v 21.544013 -0.534264 0.959011
v 21.544013 -0.939592 0.553681
v 21.203825 -0.391539 0.711803
v 21.203825 0.019424 0.821920
v 21.544013 0.019424 1.107368
v 21.544013 -0.534264 0.959011
v 21.203825 0.019424 0.821920
v 21.203825 0.430387 0.711803
v 21.544013 0.573112 0.959011
v 21.544013 0.019424 1.107368
v 21.203825 0.430387 0.711803
v 21.203825 0.731232 0.410954
v 21.544013 0.978441 0.553681
v 21.544013 0.573112 0.959011
v 21.203825 0.731232 0.410954
v 21.203825 0.841349 -0.000007
v 21.544013 1.126801 -0.000007
v 21.544013 0.978441 0.553681
v 21.203825 0.841349 -0.000007
v 21.203825 0.731232 -0.410967
v 21.544013 0.978440 -0.553694
v 21.544013 1.126801 -0.000007
v 21.203825 0.731232 -0.410967
v 21.203825 0.430387 -0.711816
v 21.544013 0.573112 -0.959025
v 21.544013 0.978440 -0.553694
v 21.203825 0.430387 -0.711816
v 21.203825 0.019424 -0.821933
v 21.544013 0.019424 -1.107382
v 21.544013 0.573112 -0.959025
v 21.203825 0.019424 -0.821933
v 21.203825 -0.391539 -0.711816
v 21.544013 -0.534264 -0.959025
v 21.544013 0.019424 -1.107382
v 21.203825 -0.391539 -0.711816
v 21.203825 -0.692384 -0.410967
v 21.544013 -0.939592 -0.553694
v 21.544013 -0.534264 -0.959025
v 21.203825 -0.692384 -0.410967
v 21.203825 -0.802501 -0.000007
v 21.544013 -1.087953 -0.000007
v 21.544013 -0.939592 -0.553694
v 20.981782 -0.417913 -0.000007
v 20.981782 -0.359321 0.218662
v 21.203825 -0.692384 0.410954
v 21.203825 -0.802501 -0.000007
v 20.981782 -0.359321 0.218662
v 20.981782 -0.199245 0.378740
v 21.203825 -0.391539 0.711803
v 21.203825 -0.692384 0.410954
v 20.981782 -0.199245 0.378740
v 20.981782 0.019424 0.437330
v 21.203825 0.019424 0.821920
v 21.203825 -0.391539 0.711803
v 20.981782 0.019424 0.437330
v 20.981782 0.238092 0.378740
v 21.203825 0.430387 0.711803
v 21.203825 0.019424 0.821920
v 20.981782 0.238092 0.378740
v 20.981782 0.398169 0.218662
v 21.203825 0.731232 0.410954
v 21.203825 0.430387 0.711803
v 20.981782 0.398169 0.218662
v 20.981782 0.456761 -0.000007
v 21.203825 0.841349 -0.000007
v 21.203825 0.731232 0.410954
v 20.981782 0.456761 -0.000007
v 20.981782 0.398169 -0.218675
v 21.203825 0.731232 -0.410967
v 21.203825 0.841349 -0.000007
v 20.981782 0.398169 -0.218675
v 20.981782 0.238092 -0.378753
v 21.203825 0.430387 -0.711816
v 21.203825 0.731232 -0.410967
v 20.981782 0.238092 -0.378753
v 20.981782 0.019424 -0.437343
v 21.203825 0.019424 -0.821933
v 21.203825 0.430387 -0.711816
v 20.981782 0.019424 -0.437343
v 20.981782 -0.199245 -0.378753
v 21.203825 -0.391539 -0.711816
v 21.203825 0.019424 -0.821933
v 20.981782 -0.199245 -0.378753
v 20.981782 -0.359321 -0.218675
v 21.203825 -0.692384 -0.410967
v 21.203825 -0.391539 -0.711816
v 20.981782 -0.359321 -0.218675
v 20.981782 -0.417913 -0.000007
v 21.203825 -0.802501 -0.000007
v 21.203825 -0.692384 -0.410967
v 20.904668 0.019424 -0.000007
v 20.981782 -0.359321 0.218662
v 20.981782 -0.417913 -0.000007
v 20.904668 0.019424 -0.000007
v 20.981782 -0.199245 0.378740
v 20.981782 -0.359321 0.218662
v 20.904668 0.019424 -0.000007
v 20.981782 0.019424 0.437330
v 20.981782 -0.199245 0.378740
v 20.904668 0.019424 -0.000007
v 20.981782 0.238092 0.378740
v 20.981782 0.019424 0.437330
v 20.904668 0.019424 -0.000007
v 20.981782 0.398169 0.218662
v 20.981782 0.238092 0.378740
v 20.904668 0.019424 -0.000007
v 20.981782 0.456761 -0.000007
v 20.981782 0.398169 0.218662
v 20.904668 0.019424 -0.000007
v 20.981782 0.398169 -0.218675
v 20.981782 0.456761 -0.000007
v 20.904668 0.019424 -0.000007
v 20.981782 0.238092 -0.378753
v 20.981782 0.398169 -0.218675
v 20.904668 0.019424 -0.000007
v 20.981782 0.019424 -0.437343
v 20.981782 0.238092 -0.378753
v 20.904668 0.019424 -0.000007
v 20.981782 -0.199245 -0.378753
v 20.981782 0.019424 -0.437343
v 20.904668 0.019424 -0.000007
v 20.981782 -0.359321 -0.218675
v 20.981782 -0.199245 -0.378753
v 20.904668 0.019424 -0.000007
v 20.981782 -0.417913 -0.000007
v 20.981782 -0.359321 -0.218675
v 3.409832 -0.000002 2.983603
v 3.409832 1.491801 2.583871
v 17.901637 1.491801 2.583871
v 17.901637 -0.000002 2.983603
v 3.409832 1.491801 2.583871
v 3.409832 2.583877 1.491795
v 17.901637 2.583877 1.491795
v 17.901637 1.491801 2.583871
v 3.409832 2.583877 1.491795
v 3.409832 2.983605 -0.000007
v 17.901637 2.983605 -0.000007
v 17.901637 2.583877 1.491795
v 3.409832 2.983605 -0.000007
v 3.409832 2.583877 -1.491810
v 17.901637 2.583877 -1.491810
v 17.901637 2.983605 -0.000007
v 3.409832 2.583877 -1.491810
v 3.409832 1.491801 -2.583884
v 17.901637 1.491801 -2.583884
v 17.901637 2.583877 -1.491810
v 3.409832 1.491801 -2.583884
v 3.409832 -0.000003 -2.983616
v 17.901637 -0.000003 -2.983616
v 17.901637 1.491801 -2.583884
v 3.409832 -0.000003 -2.983616
v 3.409832 -1.491806 -2.583884
v 17.901637 -1.491806 -2.583884
v 17.901637 -0.000003 -2.983616
v 3.409832 -1.491806 -2.583884
v 3.409832 -2.583882 -1.491810
v 17.901637 -2.583882 -1.491810
v 17.901637 -1.491806 -2.583884
v 3.409832 -2.583882 -1.491810
v 3.409832 -2.983609 -0.000007
v 17.901637 -2.983609 -0.000007
v 17.901637 -2.583882 -1.491810
v 3.409832 -2.983609 -0.000007
v 3.409832 -2.583882 1.491795
v 17.901637 -2.583882 1.491795
v 17.901637 -2.983609 -0.000007
v 3.409832 -2.583882 1.491795
v 3.409832 -1.491805 2.583871
v 17.901637 -1.491805 2.583871
v 17.901637 -2.583882 1.491795
v 3.409832 -1.491805 2.583871
v 3.409832 -0.000002 2.983603
v 17.901637 -0.000002 2.983603
v 17.901637 -1.491805 2.583871
v 18.754095 -1.805084 3.126492
v 18.754095 -3.126497 1.805078
v 17.901637 -2.583882 1.491795
v 17.901637 -1.491805 2.583871
v 2.557374 -0.000002 3.610167
v 2.557378 1.805079 3.126497
v 3.409832 1.491801 2.583871
v 3.409832 -0.000002 2.983603
v 18.754095 -3.126497 1.805078
v 18.754095 -3.610167 -0.000007
v 17.901637 -2.983609 -0.000007
v 17.901637 -2.583882 1.491795
v 18.754095 -3.610167 -0.000007
v 18.754095 -3.126497 -1.805086
v 17.901637 -2.583882 -1.491810
v 17.901637 -2.983609 -0.000007
v 18.754095 -3.126497 -1.805086
v 18.754095 -1.805085 -3.126500
v 17.901637 -1.491806 -2.583884
v 17.901637 -2.583882 -1.491810
v 18.754095 -1.805085 -3.126500
v 18.754095 -0.000002 -3.610175
v 17.901637 -0.000003 -2.983616
v 17.901637 -1.491806 -2.583884
v 18.754095 -0.000002 -3.610175
v 18.754095 1.805080 -3.126500
v 17.901637 1.491801 -2.583884
v 17.901637 -0.000003 -2.983616
v 18.754095 1.805080 -3.126500
v 18.754095 3.126492 -1.805086
v 17.901637 2.583877 -1.491810
v 17.901637 1.491801 -2.583884
v 18.754095 3.126492 -1.805086
v 18.754095 3.610162 -0.000007
v 17.901637 2.983605 -0.000007
v 17.901637 2.583877 -1.491810
v 18.754095 3.610162 -0.000007
v 18.754095 3.126492 1.805078
v 17.901637 2.583877 1.491795
v 17.901637 2.983605 -0.000007
v 18.754095 3.126492 1.805078
v 18.754095 1.805080 3.126492
v 17.901637 1.491801 2.583871
v 17.901637 2.583877 1.491795
v 18.754095 1.805080 3.126492
v 18.754095 -0.000002 3.610162
v 17.901637 -0.000002 2.983603
v 17.901637 1.491801 2.583871
v 18.754095 -0.000002 3.610162
v 18.754095 -1.805084 3.126492
v 17.901637 -1.491805 2.583871
v 17.901637 -0.000002 2.983603
v 23.016390 -2.590230 4.486410
v 23.016390 -4.486407 2.590223
v 18.754095 -3.126497 1.805078
v 18.754095 -1.805084 3.126492
v 23.016390 -4.486407 2.590223
v 23.016390 -5.180458 -0.000007
v 18.754095 -3.610167 -0.000007
v 18.754095 -3.126497 1.805078
v 23.016390 -5.180458 -0.000007
v 23.016390 -4.486407 -2.590231
v 18.754095 -3.126497 -1.805086
v 18.754095 -3.610167 -0.000007
v 23.016390 -4.486407 -2.590231
v 23.016390 -2.590231 -4.486413
v 18.754095 -1.805085 -3.126500
v 18.754095 -3.126497 -1.805086
v 23.016390 -2.590231 -4.486413
v 23.016390 -0.000001 -5.180461
v 18.754095 -0.000002 -3.610175
v 18.754095 -1.805085 -3.126500
v 23.016390 -0.000001 -5.180461
v 23.016390 2.590228 -4.486413
v 18.754095 1.805080 -3.126500
v 18.754095 -0.000002 -3.610175
v 23.016390 2.590228 -4.486413
v 23.016390 4.486407 -2.590231
v 18.754095 3.126492 -1.805086
v 18.754095 1.805080 -3.126500
v 23.016390 4.486407 -2.590231
v 23.016390 5.180458 -0.000007
v 18.754095 3.610162 -0.000007
v 18.754095 3.126492 -1.805086
v 23.016390 5.180458 -0.000007
v 23.016390 4.486407 2.590223
v 18.754095 3.126492 1.805078
v 18.754095 3.610162 -0.000007
v 23.016390 4.486407 2.590223
v 23.016390 2.590228 4.486410
v 18.754095 1.805080 3.126492
v 18.754095 3.126492 1.805078
v 23.016390 2.590228 4.486410
v 23.016390 -0.000001 5.180461
v 18.754095 -0.000002 3.610162
v 18.754095 1.805080 3.126492
v 23.016390 -0.000001 5.180461
v 23.016390 -2.590230 4.486410
v 18.754095 -1.805084 3.126492
v 18.754095 -0.000002 3.610162
v 23.442619 -2.331207 4.037763
v 23.442619 -4.037768 2.331196
v 23.016390 -4.486407 2.590223
v 23.016390 -2.590230 4.486410
v 23.442619 -4.037768 2.331196
v 23.442619 -4.662415 -0.000007
v 23.016390 -5.180458 -0.000007
v 23.016390 -4.486407 2.590223
v 23.442619 -4.662415 -0.000007
v 23.442619 -4.037768 -2.331208
v 23.016390 -4.486407 -2.590231
v 23.016390 -5.180458 -0.000007
v 23.442619 -4.037768 -2.331208
v 23.442619 -2.331208 -4.037778
v 23.016390 -2.590231 -4.486413
v 23.016390 -4.486407 -2.590231
v 23.442619 -2.331208 -4.037778
v 23.442619 -0.000001 -4.662416
v 23.016390 -0.000001 -5.180461
v 23.016390 -2.590231 -4.486413
v 23.442619 -0.000001 -4.662416
v 23.442619 2.331205 -4.037778
v 23.016390 2.590228 -4.486413
v 23.016390 -0.000001 -5.180461
v 23.442619 2.331205 -4.037778
v 23.442619 4.037767 -2.331208
v 23.016390 4.486407 -2.590231
v 23.016390 2.590228 -4.486413
v 23.442619 4.037767 -2.331208
v 23.442619 4.662410 -0.000007
v 23.016390 5.180458 -0.000007
v 23.016390 4.486407 -2.590231
v 23.442619 4.662410 -0.000007
v 23.442619 4.037767 2.331196
v 23.016390 4.486407 2.590223
v 23.016390 5.180458 -0.000007
v 23.442619 4.037767 2.331196
v 23.442619 2.331205 4.037763
v 23.016390 2.590228 4.486410
v 23.016390 4.486407 2.590223
v 23.442619 2.331205 4.037763
v 23.442619 -0.000001 4.662413
v 23.016390 -0.000001 5.180461
v 23.016390 2.590228 4.486410
v 23.442619 -0.000001 4.662413
v 23.442619 -2.331207 4.037763
v 23.016390 -2.590230 4.486410
v 23.016390 -0.000001 5.180461
v 24.295078 -2.564327 4.441543
v 24.295078 -4.441547 2.564313
v 23.442619 -4.037768 2.331196
v 23.442619 -2.331207 4.037763
v 24.295078 -4.441547 2.564313
v 24.295078 -5.128654 -0.000007
v 23.442619 -4.662415 -0.000007
v 23.442619 -4.037768 2.331196
v 24.295078 -5.128654 -0.000007
v 24.295078 -4.441547 -2.564328
v 23.442619 -4.037768 -2.331208
v 23.442619 -4.662415 -0.000007
v 24.295078 -4.441547 -2.564328
v 24.295078 -2.564330 -4.441558
v 23.442619 -2.331208 -4.037778
v 23.442619 -4.037768 -2.331208
v 24.295078 -2.564330 -4.441558
v 24.295078 -0.000002 -5.128652
v 23.442619 -0.000001 -4.662416
v 23.442619 -2.331208 -4.037778
v 24.295078 -0.000002 -5.128652
v 24.295078 2.564326 -4.441558
v 23.442619 2.331205 -4.037778
v 23.442619 -0.000001 -4.662416
v 24.295078 2.564326 -4.441558
v 24.295078 4.441542 -2.564328
v 23.442619 4.037767 -2.331208
v 23.442619 2.331205 -4.037778
v 24.295078 4.441542 -2.564328
v 24.295078 5.128654 -0.000007
v 23.442619 4.662410 -0.000007
v 23.442619 4.037767 -2.331208
v 24.295078 5.128654 -0.000007
v 24.295078 4.441542 2.564313
v 23.442619 4.037767 2.331196
v 23.442619 4.662410 -0.000007
v 24.295078 4.441542 2.564313
v 24.295078 2.564326 4.441543
v 23.442619 2.331205 4.037763
v 23.442619 4.037767 2.331196
v 24.295078 2.564326 4.441543
v 24.295078 -0.000002 5.128661
v 23.442619 -0.000001 4.662413
v 23.442619 2.331205 4.037763
v 24.295078 -0.000002 5.128661
v 24.295078 -2.564327 4.441543
v 23.442619 -2.331207 4.037763
v 23.442619 -0.000001 4.662413
v 2.557378 1.805079 3.126497
v 2.557374 3.126491 1.805068
v 3.409832 2.583877 1.491795
v 3.409832 1.491801 2.583871
v 2.557374 3.126491 1.805068
v 2.557374 3.610162 -0.000007
v 3.409832 2.983605 -0.000007
v 3.409832 2.583877 1.491795
v 2.557374 3.610162 -0.000007
v 2.557374 3.126491 -1.805082
v 3.409832 2.583877 -1.491810
v 3.409832 2.983605 -0.000007
v 2.557374 3.126491 -1.805082
v 2.557378 1.805079 -3.126495
v 3.409832 1.491801 -2.583884
v 3.409832 2.583877 -1.491810
v 2.557378 1.805079 -3.126495
v 2.557374 -0.000003 -3.610171
v 3.409832 -0.000003 -2.983616
v 3.409832 1.491801 -2.583884
v 2.557374 -0.000003 -3.610171
v 2.557374 -1.805085 -3.126495
v 3.409832 -1.491806 -2.583884
v 3.409832 -0.000003 -2.983616
v 2.557374 -1.805085 -3.126495
v 2.557374 -3.126497 -1.805082
v 3.409832 -2.583882 -1.491810
v 3.409832 -1.491806 -2.583884
v 2.557374 -3.126497 -1.805082
v 2.557374 -3.610168 -0.000007
v 3.409832 -2.983609 -0.000007
v 3.409832 -2.583882 -1.491810
v 2.557374 -3.610168 -0.000007
v 2.557374 -3.126497 1.805068
v 3.409832 -2.583882 1.491795
v 3.409832 -2.983609 -0.000007
v 2.557374 -3.126497 1.805068
v 2.557374 -1.805084 3.126497
v 3.409832 -1.491805 2.583871
v 3.409832 -2.583882 1.491795
v 2.557374 -1.805084 3.126497
v 2.557374 -0.000002 3.610167
v 3.409832 -0.000002 2.983603
v 3.409832 -1.491805 2.583871
v 13.213109 -1.278691 3.409832
v 17.901637 -1.278691 3.409832
v 17.901636 -1.278691 2.131144
v 13.213109 -1.278690 2.131144
v 17.901636 0.852457 2.131144
v 17.901637 0.852457 3.409832
v 13.213109 0.852458 3.409832
v 13.213109 0.852457 2.131144
v 17.901636 -1.278691 2.131144
v 17.901636 0.852457 2.131144
v 13.213109 0.852457 2.131144
v 13.213109 -1.278690 2.131144
v 13.213109 0.852458 3.409832
v 17.901637 0.852457 3.409832
v 17.901637 -1.278691 3.409832
v 13.213109 -1.278691 3.409832
v 13.213109 0.852457 2.131144
v 13.213109 0.852458 3.409832
v 13.213109 -1.278691 3.409832
v 13.213109 -1.278690 2.131144
v 17.901637 -1.278691 3.409832
v 17.901637 0.852457 3.409832
v 17.901636 0.852457 2.131144
v 17.901636 -1.278691 2.131144
v 25.999996 -2.564327 4.441543
v 25.999996 -4.441542 2.564309
v 24.295078 -4.441547 2.564313
v 24.295078 -2.564327 4.441543
v 25.999996 -4.441542 2.564309
v 25.999996 -5.128654 -0.000007
v 24.295078 -5.128654 -0.000007
v 24.295078 -4.441547 2.564313
v 25.999996 -5.128654 -0.000007
v 25.999996 -4.441542 -2.564333
v 24.295078 -4.441547 -2.564328
v 24.295078 -5.128654 -0.000007
v 25.999996 -4.441542 -2.564333
v 25.999996 -2.564330 -4.441562
v 24.295078 -2.564330 -4.441558
v 24.295078 -4.441547 -2.564328
v 25.999996 -2.564330 -4.441562
v 25.999996 -0.000001 -5.128666
v 24.295078 -0.000002 -5.128652
v 24.295078 -2.564330 -4.441558
v 25.999996 -0.000001 -5.128666
v 25.999996 2.564326 -4.441562
v 24.295078 2.564326 -4.441558
v 24.295078 -0.000002 -5.128652
v 25.999996 2.564326 -4.441562
v 25.999996 4.441542 -2.564333
v 24.295078 4.441542 -2.564328
v 24.295078 2.564326 -4.441558
v 25.999996 4.441542 -2.564333
v 25.999996 5.128654 -0.000007
v 24.295078 5.128654 -0.000007
v 24.295078 4.441542 -2.564328
v 25.999996 5.128654 -0.000007
v 25.999996 4.441542 2.564309
v 24.295078 4.441542 2.564313
v 24.295078 5.128654 -0.000007
v 25.999996 4.441542 2.564309
v 25.999996 2.564326 4.441543
v 24.295078 2.564326 4.441543
v 24.295078 4.441542 2.564313
v 25.999996 2.564326 4.441543
v 25.999996 -0.000001 5.128656
v 24.295078 -0.000002 5.128661
v 24.295078 2.564326 4.441543
v 25.999996 -0.000001 5.128656
v 25.999996 -2.564327 4.441543
v 24.295078 -2.564327 4.441543
v 24.295078 -0.000002 5.128661
v 21.737700 -0.987625 1.710606
v 21.737700 -1.710615 0.987613
v 25.999996 -4.441542 2.564309
v 25.999996 -2.564327 4.441543
v 21.737700 -1.710615 0.987613
v 21.737700 -1.975248 -0.000007
v 25.999996 -5.128654 -0.000007
v 25.999996 -4.441542 2.564309
v 21.737700 -1.975248 -0.000007
v 21.737700 -1.710615 -0.987631
v 25.999996 -4.441542 -2.564333
v 25.999996 -5.128654 -0.000007
v 21.737700 -1.710615 -0.987631
v 21.737700 -0.987626 -1.710624
v 25.999996 -2.564330 -4.441562
v 25.999996 -4.441542 -2.564333
v 21.737700 -0.987626 -1.710624
v 21.737700 -0.000002 -1.975261
v 25.999996 -0.000001 -5.128666
v 25.999996 -2.564330 -4.441562
v 21.737700 -0.000002 -1.975261
v 21.737700 0.987621 -1.710624
v 25.999996 2.564326 -4.441562
v 25.999996 -0.000001 -5.128666
v 21.737700 0.987621 -1.710624
v 21.737700 1.710611 -0.987631
v 25.999996 4.441542 -2.564333
v 25.999996 2.564326 -4.441562
v 21.737700 1.710611 -0.987631
v 21.737700 1.975243 -0.000007
v 25.999996 5.128654 -0.000007
v 25.999996 4.441542 -2.564333
v 21.737700 1.975243 -0.000007
v 21.737700 1.710611 0.987613
v 25.999996 4.441542 2.564309
v 25.999996 5.128654 -0.000007
v 21.737700 1.710611 0.987613
v 21.737700 0.987621 1.710606
v 25.999996 2.564326 4.441543
v 25.999996 4.441542 2.564309
v 21.737700 0.987621 1.710606
v 21.737700 -0.000002 1.975242
v 25.999996 -0.000001 5.128656
v 25.999996 2.564326 4.441543
v 21.737700 -0.000002 1.975242
v 21.737700 -0.987625 1.710606
v 25.999996 -2.564327 4.441543
v 25.999996 -0.000001 5.128656
v 21.737700 -0.000002 1.975242
v 21.737700 0.987621 1.710606
v 21.737700 1.710611 0.987613
v 21.737700 1.975243 -0.000007
v 21.737700 1.710611 -0.987631
v 21.737700 0.987621 -1.710624
v 21.737700 -0.000002 -1.975261
v 21.737700 -0.987626 -1.710624
v 21.737700 -1.710615 -0.987631
v 21.737700 -1.975248 -0.000007
v 21.737700 -1.710615 0.987613
v 21.737700 -0.987625 1.710606
v 0.000000 0.000004 3.610183
v 0.000005 1.805085 3.126502
v 2.557378 1.805079 3.126497
v 2.557374 -0.000002 3.610167
v 0.000005 1.805085 3.126502
v 0.000005 3.126497 1.805078
v 2.557374 3.126491 1.805068
v 2.557378 1.805079 3.126497
v 0.000005 3.126497 1.805078
v 0.000000 3.610167 0.000008
v 2.557374 3.610162 -0.000007
v 2.557374 3.126491 1.805068
v 0.000000 3.610167 0.000008
v 0.000005 3.126497 -1.805066
v 2.557374 3.126491 -1.805082
v 2.557374 3.610162 -0.000007
v 0.000005 3.126497 -1.805066
v 0.000005 1.805085 -3.126480
v 2.557378 1.805079 -3.126495
v 2.557374 3.126491 -1.805082
v 0.000005 1.805085 -3.126480
v 0.000000 0.000003 -3.610162
v 2.557374 -0.000003 -3.610171
v 2.557378 1.805079 -3.126495
v 0.000000 0.000003 -3.610162
v 0.000000 -1.805080 -3.126480
v 2.557374 -1.805085 -3.126495
v 2.557374 -0.000003 -3.610171
v 0.000000 -1.805080 -3.126480
v 0.000005 -3.126493 -1.805066
v 2.557374 -3.126497 -1.805082
v 2.557374 -1.805085 -3.126495
v 0.000005 -3.126493 -1.805066
v 0.000005 -3.610163 0.000008
v 2.557374 -3.610168 -0.000007
v 2.557374 -3.126497 -1.805082
v 0.000005 -3.610163 0.000008
v 0.000005 -3.126493 1.805078
v 2.557374 -3.126497 1.805068
v 2.557374 -3.610168 -0.000007
v 0.000005 -3.126493 1.805078
v 0.000000 -1.805078 3.126502
v 2.557374 -1.805084 3.126497
v 2.557374 -3.126497 1.805068
v 0.000000 -1.805078 3.126502
v 0.000000 0.000004 3.610183
v 2.557374 -0.000002 3.610167
v 2.557374 -1.805084 3.126497
v 0.000000 -1.805078 3.126502
v 0.000005 -3.126493 1.805078
v 0.000005 -3.610163 0.000008
v 0.000005 -3.126493 -1.805066
v 0.000000 -1.805080 -3.126480
v 0.000000 0.000003 -3.610162
v 0.000005 1.805085 -3.126480
v 0.000005 3.126497 -1.805066
v 0.000000 3.610167 0.000008
v 0.000005 3.126497 1.805078
v 0.000005 1.805085 3.126502
v 0.000000 0.000004 3.610183
v 24.295078 -0.000003 3.836061
v 24.295078 1.918030 3.322123
v 25.573767 1.918030 3.322123
v 25.573767 -0.000003 3.836061
v 24.295078 1.918030 3.322123
v 24.295078 3.322128 1.918024
v 25.573767 3.322128 1.918024
v 25.573767 1.918030 3.322123
v 24.295078 3.322128 1.918024
v 24.295078 3.836063 -0.000007
v 25.573767 3.836064 -0.000007
v 25.573767 3.322128 1.918024
v 24.295078 3.836063 -0.000007
v 24.295078 3.322128 -1.918038
v 25.573767 3.322128 -1.918038
v 25.573767 3.836064 -0.000007
v 24.295078 3.322128 -1.918038
v 24.295078 1.918030 -3.322136
v 25.573767 1.918031 -3.322136
v 25.573767 3.322128 -1.918038
v 24.295078 1.918030 -3.322136
v 24.295078 -0.000003 -3.836072
v 25.573767 -0.000003 -3.836072
v 25.573767 1.918031 -3.322136
v 24.295078 -0.000003 -3.836072
v 24.295082 -1.918036 -3.322136
v 25.573767 -1.918036 -3.322136
v 25.573767 -0.000003 -3.836072
v 24.295082 -1.918036 -3.322136
v 24.295082 -3.322133 -1.918038
v 25.573767 -3.322133 -1.918038
v 25.573767 -1.918036 -3.322136
v 24.295082 -3.322133 -1.918038
v 24.295082 -3.836069 -0.000007
v 25.573770 -3.836068 -0.000007
v 25.573767 -3.322133 -1.918038
v 24.295082 -3.836069 -0.000007
v 24.295082 -3.322133 1.918024
v 25.573767 -3.322133 1.918024
v 25.573770 -3.836068 -0.000007
v 24.295082 -3.322133 1.918024
v 24.295082 -1.918035 3.322123
v 25.573767 -1.918035 3.322123
v 25.573767 -3.322133 1.918024
v 24.295082 -1.918035 3.322123
v 24.295078 -0.000003 3.836061
v 25.573767 -0.000003 3.836061
v 25.573767 -1.918035 3.322123
v 25.999996 -1.553609 2.690914
v 25.999996 -2.690930 1.553601
v 25.573767 -3.322133 1.918024
v 25.573767 -1.918035 3.322123
v 24.295082 -1.918035 3.322123
v 24.295082 -3.322133 1.918024
v 24.295082 -3.836069 -0.000007
v 24.295082 -3.322133 -1.918038
v 24.295082 -1.918036 -3.322136
v 24.295078 -0.000003 -3.836072
v 24.295078 1.918030 -3.322136
v 24.295078 3.322128 -1.918038
v 24.295078 3.836063 -0.000007
v 24.295078 3.322128 1.918024
v 24.295078 1.918030 3.322123
v 24.295078 -0.000003 3.836061
v 25.999996 -2.690930 1.553601
v 26.000000 -3.107217 -0.000007
v 25.573770 -3.836068 -0.000007
v 25.573767 -3.322133 1.918024
v 26.000000 -3.107217 -0.000007
v 25.999996 -2.690930 -1.553615
v 25.573767 -3.322133 -1.918038
v 25.573770 -3.836068 -0.000007
v 25.999996 -2.690930 -1.553615
v 25.999996 -1.553610 -2.690927
v 25.573767 -1.918036 -3.322136
v 25.573767 -3.322133 -1.918038
v 25.999996 -1.553610 -2.690927
v 25.999996 -0.000003 -3.107223
v 25.573767 -0.000003 -3.836072
v 25.573767 -1.918036 -3.322136
v 25.999996 -0.000003 -3.107223
v 25.999996 1.553604 -2.690927
v 25.573767 1.918031 -3.322136
v 25.573767 -0.000003 -3.836072
v 25.999996 1.553604 -2.690927
v 25.999996 2.690923 -1.553615
v 25.573767 3.322128 -1.918038
v 25.573767 1.918031 -3.322136
v 25.999996 2.690923 -1.553615
v 25.999996 3.107211 -0.000007
v 25.573767 3.836064 -0.000007
v 25.573767 3.322128 -1.918038
v 25.999996 3.107211 -0.000007
v 25.999996 2.690922 1.553601
v 25.573767 3.322128 1.918024
v 25.573767 3.836064 -0.000007
v 25.999996 2.690922 1.553601
v 25.999996 1.553603 2.690914
v 25.573767 1.918030 3.322123
v 25.573767 3.322128 1.918024
v 25.999996 1.553603 2.690914
v 25.999996 -0.000004 3.107209
v 25.573767 -0.000003 3.836061
v 25.573767 1.918030 3.322123
v 25.999996 -0.000004 3.107209
v 25.999996 -1.553609 2.690914
v 25.573767 -1.918035 3.322123
v 25.573767 -0.000003 3.836061
v 25.999996 -0.000004 3.107209
v 25.999996 1.553603 2.690914
v 25.999996 2.690922 1.553601
v 25.999996 3.107211 -0.000007
v 25.999996 2.690923 -1.553615
v 25.999996 1.553604 -2.690927
v 25.999996 -0.000003 -3.107223
v 25.999996 -1.553610 -2.690927
v 25.999996 -2.690930 -1.553615
v 26.000000 -3.107217 -0.000007
v 25.999996 -2.690930 1.553601
v 25.999996 -1.553609 2.690914
vn 1.000000 0.000000 0.000000
vn 1.000000 0.000000 0.000000
vn 1.000000 0.000000 0.000000
vn 1.000000 0.000000 0.000000
vn 1.000000 0.000000 0.000000
vn 1.000000 0.000000 0.000000
vn 1.000000 0.000000 0.000000
vn 1.000000 0.000000 0.000000
vn 1.000000 0.000000 0.000000
vn 1.000000 0.000000 0.000000
vn 1.000000 0.000000 0.000000
vn 1.000000 0.000000 0.000000
vn 1.000000 0.000000 0.000000
vn 1.000000 0.000000 0.000000
vn 1.000000 0.000000 0.000000
vn 1.000000 0.000000 0.000000
vn 1.000000 0.000000 0.000000
vn 1.000000 0.000000 0.000000
vn 1.000000 0.000000 0.000000
vn 1.000000 0.000000 0.000000
vn 1.000000 0.000000 0.000000
vn 1.000000 0.000000 0.000000
vn 1.000000 0.000000 0.000000
vn 1.000000 0.000000 0.000000
vn 1.000000 0.000000 0.000000
vn 1.000000 0.000000 0.000000
vn 1.000000 0.000000 0.000000
vn 1.000000 0.000000 0.000000
vn 1.000000 0.000000 0.000000
vn 1.000000 0.000000 0.000000
vn 1.000000 0.000000 0.000000
vn 1.000000 0.000000 0.000000
vn 1.000000 0.000000 0.000000
vn 1.000000 0.000000 0.000000
vn 1.000000 0.000000 0.000000
vn 1.000000 0.000000 0.000000
vn 0.939693 -0.342020 0.000000
vn 0.939693 -0.342020 0.000000
vn 0.939693 -0.342020 0.000000
vn 0.939693 -0.342020 0.000000
vn 0.939693 -0.296198 0.171010
vn 0.939693 -0.296198 0.171010
vn 0.939693 -0.296198 0.171010
vn 0.939693 -0.296198 0.171010
vn 0.939693 -0.171010 0.296198
vn 0.939693 -0.171010 0.296198
vn 0.939693 -0.171010 0.296198
vn 0.939693 -0.171010 0.296198
vn 0.939693 0.000000 0.342020
vn 0.939693 0.000000 0.342020
vn 0.939693 0.000000 0.342020
vn 0.939693 0.000000 0.342020
vn 0.939693 0.171010 0.296198
vn 0.939693 0.171010 0.296198
vn 0.939693 0.171010 0.296198
vn 0.939693 0.171010 0.296198
vn 0.939693 0.296198 0.171010
vn 0.939693 0.296198 0.171010
vn 0.939693 0.296198 0.171010
vn 0.939693 0.296198 0.171010
vn 0.939693 0.342020 -0.000000
vn 0.939693 0.342020 -0.000000
vn 0.939693 0.342020 -0.000000
vn 0.939693 0.342020 -0.000000
vn 0.939693 0.296198 -0.171010
vn 0.939693 0.296198 -0.171010
vn 0.939693 0.296198 -0.171010
vn 0.939693 0.296198 -0.171010
vn 0.939693 0.171010 -0.296198
vn 0.939693 0.171010 -0.296198
vn 0.939693 0.171010 -0.296198
vn 0.939693 0.171010 -0.296198
vn 0.939693 -0.000000 -0.342020
vn 0.939693 -0.000000 -0.342020
vn 0.939693 -0.000000 -0.342020
vn 0.939693 -0.000000 -0.342020
vn 0.939693 -0.171010 -0.296198
vn 0.939693 -0.171010 -0.296198
vn 0.939693 -0.171010 -0.296198
vn 0.939693 -0.171010 -0.296198
vn 0.939693 -0.296198 -0.171010
vn 0.939693 -0.296198 -0.171010
vn 0.939693 -0.296198 -0.171010
vn 0.939693 -0.296198 -0.171010
vn 0.766044 -0.642788 0.000000
vn 0.766044 -0.642788 0.000000
vn 0.766044 -0.642788 0.000000
vn 0.766044 -0.642788 0.000000
vn 0.766044 -0.556670 0.321394
vn 0.766044 -0.556670 0.321394
vn 0.766044 -0.556670 0.321394
vn 0.766044 -0.556670 0.321394
vn 0.766044 -0.321394 0.556670
vn 0.766044 -0.321394 0.556670
vn 0.766044 -0.321394 0.556670
vn 0.766044 -0.321394 0.556670
vn 0.766044 0.000000 0.642788
vn 0.766044 0.000000 0.642788
vn 0.766044 0.000000 0.642788
vn 0.766044 0.000000 0.642788
vn 0.766044 0.321394 0.556670
vn 0.766044 0.321394 0.556670
vn 0.766044 0.321394 0.556670
vn 0.766044 0.321394 0.556670
vn 0.766044 0.556670 0.321394
vn 0.766044 0.556670 0.321394
vn 0.766044 0.556670 0.321394
vn 0.766044 0.556670 0.321394
vn 0.766044 0.642788 -0.000000
vn 0.766044 0.642788 -0.000000
vn 0.766044 0.642788 -0.000000
vn 0.766044 0.642788 -0.000000
vn 0.766044 0.556670 -0.321394
vn 0.766044 0.556670 -0.321394
vn 0.766044 0.556670 -0.321394
vn 0.766044 0.556670 -0.321394
vn 0.766044 0.321394 -0.556670
vn 0.766044 0.321394 -0.556670
vn 0.766044 0.321394 -0.556670
vn 0.766044 0.321394 -0.556670
vn 0.766044 -0.000000 -0.642788
vn 0.766044 -0.000000 -0.642788
vn 0.766044 -0.000000 -0.642788
vn 0.766044 -0.000000 -0.642788
vn 0.766044 -0.321394 -0.556670
vn 0.766044 -0.321394 -0.556670
vn 0.766044 -0.321394 -0.556670
vn 0.766044 -0.321394 -0.556670
vn 0.766044 -0.556671 -0.321394
vn 0.766044 -0.556671 -0.321394
vn 0.766044 -0.556671 -0.321394
vn 0.766044 -0.556671 -0.321394
vn 0.500000 -0.866025 0.000000
vn 0.500000 -0.866025 0.000000
vn 0.500000 -0.866025 0.000000
vn 0.500000 -0.866025 0.000000
vn 0.500000 -0.750000 0.433013
vn 0.500000 -0.750000 0.433013
vn 0.500000 -0.750000 0.433013
vn 0.500000 -0.750000 0.433013
vn 0.500000 -0.433013 0.750000
vn 0.500000 -0.433013 0.750000
vn 0.500000 -0.433013 0.750000
vn 0.500000 -0.433013 0.750000
vn 0.500000 0.000000 0.866025
vn 0.500000 0.000000 0.866025
vn 0.500000 0.000000 0.866025
vn 0.500000 0.000000 0.866025
vn 0.500000 0.433013 0.750000
vn 0.500000 0.433013 0.750000
vn 0.500000 0.433013 0.750000
vn 0.500000 0.433013 0.750000
vn 0.500000 0.750000 0.433013
vn 0.500000 0.750000 0.433013
vn 0.500000 0.750000 0.433013
vn 0.500000 0.750000 0.433013
vn 0.500000 0.866025 -0.000000
vn 0.500000 0.866025 -0.000000
vn 0.500000 0.866025 -0.000000
vn 0.500000 0.866025 -0.000000
vn 0.500000 0.750000 -0.433013
vn 0.500000 0.750000 -0.433013
vn 0.500000 0.750000 -0.433013
vn 0.500000 0.750000 -0.433013
vn 0.500000 0.433013 -0.750000
vn 0.500000 0.433013 -0.750000
vn 0.500000 0.433013 -0.750000
vn 0.500000 0.433013 -0.750000
vn 0.500000 -0.000000 -0.866025
vn 0.500000 -0.000000 -0.866025
vn 0.500000 -0.000000 -0.866025
vn 0.500000 -0.000000 -0.866025
vn 0.500000 -0.433013 -0.750000
vn 0.500000 -0.433013 -0.750000
vn 0.500000 -0.433013 -0.750000
vn 0.500000 -0.433013 -0.750000
vn 0.500000 -0.750000 -0.433013
vn 0.500000 -0.750000 -0.433013
vn 0.500000 -0.750000 -0.433013
vn 0.500000 -0.750000 -0.433013
vn 0.173648 -0.984808 0.000000
vn 0.173648 -0.984808 0.000000
vn 0.173648 -0.984808 0.000000
vn 0.173648 -0.984808 0.000000
vn 0.173648 -0.852869 0.492404
vn 0.173648 -0.852869 0.492404
vn 0.173648 -0.852869 0.492404
vn 0.173648 -0.852869 0.492404
vn 0.173648 -0.492404 0.852869
vn 0.173648 -0.492404 0.852869
vn 0.173648 -0.492404 0.852869
vn 0.173648 -0.492404 0.852869
vn 0.173648 0.000000 0.984808
vn 0.173648 0.000000 0.984808
vn 0.173648 0.000000 0.984808
vn 0.173648 0.000000 0.984808
vn 0.173648 0.492404 0.852868
vn 0.173648 0.492404 0.852868
vn 0.173648 0.492404 0.852868
vn 0.173648 0.492404 0.852868
vn 0.173648 0.852868 0.492404
vn 0.173648 0.852868 0.492404
vn 0.173648 0.852868 0.492404
vn 0.173648 0.852868 0.492404
vn 0.173648 0.984808 -0.000000
vn 0.173648 0.984808 -0.000000
vn 0.173648 0.984808 -0.000000
vn 0.173648 0.984808 -0.000000
vn 0.173648 0.852868 -0.492404
vn 0.173648 0.852868 -0.492404
vn 0.173648 0.852868 -0.492404
vn 0.173648 0.852868 -0.492404
vn 0.173648 0.492404 -0.852869
vn 0.173648 0.492404 -0.852869
vn 0.173648 0.492404 -0.852869
vn 0.173648 0.492404 -0.852869
vn 0.173648 -0.000000 -0.984808
vn 0.173648 -0.000000 -0.984808
vn 0.173648 -0.000000 -0.984808
vn 0.173648 -0.000000 -0.984808
vn 0.173648 -0.492404 -0.852869
vn 0.173648 -0.492404 -0.852869
vn 0.173648 -0.492404 -0.852869
vn 0.173648 -0.492404 -0.852869
vn 0.173648 -0.852869 -0.492404
vn 0.173648 -0.852869 -0.492404
vn 0.173648 -0.852869 -0.492404
vn 0.173648 -0.852869 -0.492404
vn -0.173648 -0.984808 0.000000
vn -0.173648 -0.984808 0.000000
vn -0.173648 -0.984808 0.000000
vn -0.173648 -0.984808 0.000000
vn -0.173648 -0.852869 0.492404
vn -0.173648 -0.852869 0.492404
vn -0.173648 -0.852869 0.492404
vn -0.173648 -0.852869 0.492404
vn -0.173648 -0.492404 0.852869
vn -0.173648 -0.492404 0.852869
vn -0.173648 -0.492404 0.852869
vn -0.173648 -0.492404 0.852869
vn -0.173648 0.000000 0.984808
vn -0.173648 0.000000 0.984808
vn -0.173648 0.000000 0.984808
vn -0.173648 0.000000 0.984808
vn -0.173648 0.492404 0.852868
vn -0.173648 0.492404 0.852868
vn -0.173648 0.492404 0.852868
vn -0.173648 0.492404 0.852868
vn -0.173648 0.852868 0.492404
vn -0.173648 0.852868 0.492404
vn -0.173648 0.852868 0.492404
vn -0.173648 0.852868 0.492404
vn -0.173648 0.984808 -0.000000
vn -0.173648 0.984808 -0.000000
vn -0.173648 0.984808 -0.000000
vn -0.173648 0.984808 -0.000000
vn -0.173648 0.852868 -0.492404
vn -0.173648 0.852868 -0.492404
vn -0.173648 0.852868 -0.492404
vn -0.173648 0.852868 -0.492404
vn -0.173648 0.492404 -0.852869
vn -0.173648 0.492404 -0.852869
vn -0.173648 0.492404 -0.852869
vn -0.173648 0.492404 -0.852869
vn -0.173648 -0.000000 -0.984808
vn -0.173648 -0.000000 -0.984808
vn -0.173648 -0.000000 -0.984808
vn -0.173648 -0.000000 -0.984808
vn -0.173648 -0.492404 -0.852869
vn -0.173648 -0.492404 -0.852869
vn -0.173648 -0.492404 -0.852869
vn -0.173648 -0.492404 -0.852869
vn -0.173648 -0.852869 -0.492404
vn -0.173648 -0.852869 -0.492404
vn -0.173648 -0.852869 -0.492404
vn -0.173648 -0.852869 -0.492404
vn -0.500000 -0.866025 0.000000
vn -0.500000 -0.866025 0.000000
vn -0.500000 -0.866025 0.000000
vn -0.500000 -0.866025 0.000000
vn -0.500000 -0.750000 0.433013
vn -0.500000 -0.750000 0.433013
vn -0.500000 -0.750000 0.433013
vn -0.500000 -0.750000 0.433013
vn -0.500000 -0.433013 0.750000
vn -0.500000 -0.433013 0.750000
vn -0.500000 -0.433013 0.750000
vn -0.500000 -0.433013 0.750000
vn -0.500000 0.000000 0.866025
vn -0.500000 0.000000 0.866025
vn -0.500000 0.000000 0.866025
vn -0.500000 0.000000 0.866025
vn -0.500000 0.433013 0.750000
vn -0.500000 0.433013 0.750000
vn -0.500000 0.433013 0.750000
vn -0.500000 0.433013 0.750000
vn -0.500000 0.750000 0.433013
vn -0.500000 0.750000 0.433013
vn -0.500000 0.750000 0.433013
vn -0.500000 0.750000 0.433013
vn -0.500000 0.866025 -0.000000
vn -0.500000 0.866025 -0.000000
vn -0.500000 0.866025 -0.000000
vn -0.500000 0.866025 -0.000000
vn -0.500000 0.750000 -0.433013
vn -0.500000 0.750000 -0.433013
vn -0.500000 0.750000 -0.433013
vn -0.500000 0.750000 -0.433013
vn -0.500000 0.433013 -0.750000
vn -0.500000 0.433013 -0.750000
vn -0.500000 0.433013 -0.750000
vn -0.500000 0.433013 -0.750000
vn -0.500000 -0.000000 -0.866025
vn -0.500000 -0.000000 -0.866025
vn -0.500000 -0.000000 -0.866025
vn -0.500000 -0.000000 -0.866025
vn -0.500000 -0.433013 -0.750000
vn -0.500000 -0.433013 -0.750000
vn -0.500000 -0.433013 -0.750000
vn -0.500000 -0.433013 -0.750000
vn -0.500000 -0.750000 -0.433012
vn -0.500000 -0.750000 -0.433012
vn -0.500000 -0.750000 -0.433012
vn -0.500000 -0.750000 -0.433012
vn -0.766044 -0.642788 0.000000
vn -0.766044 -0.642788 0.000000
vn -0.766044 -0.642788 0.000000
vn -0.766044 -0.642788 0.000000
vn -0.766044 -0.556670 0.321394
vn -0.766044 -0.556670 0.321394
vn -0.766044 -0.556670 0.321394
vn -0.766044 -0.556670 0.321394
vn -0.766044 -0.321394 0.556670
vn -0.766044 -0.321394 0.556670
vn -0.766044 -0.321394 0.556670
vn -0.766044 -0.321394 0.556670
vn -0.766044 0.000000 0.642788
vn -0.766044 0.000000 0.642788
vn -0.766044 0.000000 0.642788
vn -0.766044 0.000000 0.642788
vn -0.766044 0.321394 0.556670
vn -0.766044 0.321394 0.556670
vn -0.766044 0.321394 0.556670
vn -0.766044 0.321394 0.556670
vn -0.766044 0.556670 0.321394
vn -0.766044 0.556670 0.321394
vn -0.766044 0.556670 0.321394
vn -0.766044 0.556670 0.321394
vn -0.766044 0.642788 -0.000000
vn -0.766044 0.642788 -0.000000
vn -0.766044 0.642788 -0.000000
vn -0.766044 0.642788 -0.000000
vn -0.766044 0.556670 -0.321394
vn -0.766044 0.556670 -0.321394
vn -0.766044 0.556670 -0.321394
vn -0.766044 0.556670 -0.321394
vn -0.766044 0.321394 -0.556670
vn -0.766044 0.321394 -0.556670
vn -0.766044 0.321394 -0.556670
vn -0.766044 0.321394 -0.556670
vn -0.766044 -0.000000 -0.642788
vn -0.766044 -0.000000 -0.642788
vn -0.766044 -0.000000 -0.642788
vn -0.766044 -0.000000 -0.642788
vn -0.766044 -0.321394 -0.556670
vn -0.766044 -0.321394 -0.556670
vn -0.766044 -0.321394 -0.556670
vn -0.766044 -0.321394 -0.556670
vn -0.766044 -0.556671 -0.321394
vn -0.766044 -0.556671 -0.321394
vn -0.766044 -0.556671 -0.321394
vn -0.766044 -0.556671 -0.321394
vn -0.939693 -0.342020 0.000000
vn -0.939693 -0.342020 0.000000
vn -0.939693 -0.342020 0.000000
vn -0.939693 -0.296198 0.171010
vn -0.939693 -0.296198 0.171010
vn -0.939693 -0.296198 0.171010
vn -0.939693 -0.171010 0.296198
vn -0.939693 -0.171010 0.296198
vn -0.939693 -0.171010 0.296198
vn -0.939693 0.000000 0.342020
vn -0.939693 0.000000 0.342020
vn -0.939693 0.000000 0.342020
vn -0.939693 0.171010 0.296198
vn -0.939693 0.171010 0.296198
vn -0.939693 0.171010 0.296198
vn -0.939693 0.296198 0.171010
vn -0.939693 0.296198 0.171010
vn -0.939693 0.296198 0.171010
vn -0.939693 0.342020 -0.000000
vn -0.939693 0.342020 -0.000000
vn -0.939693 0.342020 -0.000000
vn -0.939693 0.296198 -0.171010
vn -0.939693 0.296198 -0.171010
vn -0.939693 0.296198 -0.171010
vn -0.939693 0.171010 -0.296198
vn -0.939693 0.171010 -0.296198
vn -0.939693 0.171010 -0.296198
vn -0.939693 -0.000000 -0.342020
vn -0.939693 -0.000000 -0.342020
vn -0.939693 -0.000000 -0.342020
vn -0.939693 -0.171010 -0.296198
vn -0.939693 -0.171010 -0.296198
vn -0.939693 -0.171010 -0.296198
vn -0.939693 -0.296198 -0.171010
vn -0.939693 -0.296198 -0.171010
vn -0.939693 -0.296198 -0.171010
vn 0.000000 0.000000 1.000000
vn 0.000000 0.000000 1.000000
vn 0.000000 0.000000 1.000000
vn 0.000000 0.000000 1.000000
vn 0.000000 0.500000 0.866025
vn 0.000000 0.500000 0.866025
vn 0.000000 0.500000 0.866025
vn 0.000000 0.500000 0.866025
vn 0.000000 0.866025 0.500000
vn 0.000000 0.866025 0.500000
vn 0.000000 0.866025 0.500000
vn 0.000000 0.866025 0.500000
vn 0.000000 1.000000 -0.000000
vn 0.000000 1.000000 -0.000000
vn 0.000000 1.000000 -0.000000
vn 0.000000 1.000000 -0.000000
vn 0.000000 0.866025 -0.500000
vn 0.000000 0.866025 -0.500000
vn 0.000000 0.866025 -0.500000
vn 0.000000 0.866025 -0.500000
vn 0.000000 0.500000 -0.866025
vn 0.000000 0.500000 -0.866025
vn 0.000000 0.500000 -0.866025
vn 0.000000 0.500000 -0.866025
vn 0.000000 -0.000000 -1.000000
vn 0.000000 -0.000000 -1.000000
vn 0.000000 -0.000000 -1.000000
vn 0.000000 -0.000000 -1.000000
vn 0.000000 -0.500000 -0.866025
vn 0.000000 -0.500000 -0.866025
vn 0.000000 -0.500000 -0.866025
vn 0.000000 -0.500000 -0.866025
vn 0.000000 -0.866025 -0.500000
vn 0.000000 -0.866025 -0.500000
vn 0.000000 -0.866025 -0.500000
vn 0.000000 -0.866025 -0.500000
vn 0.000000 -1.000000 0.000000
vn 0.000000 -1.000000 0.000000
vn 0.000000 -1.000000 0.000000
vn 0.000000 -1.000000 0.000000
vn 0.000000 -0.866025 0.500000
vn 0.000000 -0.866025 0.500000
vn 0.000000 -0.866025 0.500000
vn 0.000000 -0.866025 0.500000
vn 0.000000 -0.500000 0.866026
vn 0.000000 -0.500000 0.866026
vn 0.000000 -0.500000 0.866026
vn 0.000000 -0.500000 0.866026
vn -0.578900 -0.576574 0.576574
vn -0.578900 -0.576574 0.576574
vn -0.578900 -0.576574 0.576574
vn -0.578900 -0.576574 0.576574
vn 0.578905 0.211040 0.787611
vn 0.578905 0.211040 0.787611
vn 0.578905 0.211040 0.787611
vn 0.578905 0.211040 0.787611
vn -0.578898 -0.787616 0.211041
vn -0.578898 -0.787616 0.211041
vn -0.578898 -0.787616 0.211041
vn -0.578898 -0.787616 0.211041
vn -0.578898 -0.787616 -0.211041
vn -0.578898 -0.787616 -0.211041
vn -0.578898 -0.787616 -0.211041
vn -0.578898 -0.787616 -0.211041
vn -0.578897 -0.576575 -0.576575
vn -0.578897 -0.576575 -0.576575
vn -0.578897 -0.576575 -0.576575
vn -0.578897 -0.576575 -0.576575
vn -0.578900 -0.211042 -0.787615
vn -0.578900 -0.211042 -0.787615
vn -0.578900 -0.211042 -0.787615
vn -0.578900 -0.211042 -0.787615
vn -0.578899 0.211042 -0.787615
vn -0.578899 0.211042 -0.787615
vn -0.578899 0.211042 -0.787615
vn -0.578899 0.211042 -0.787615
vn -0.578897 0.576575 -0.576575
vn -0.578897 0.576575 -0.576575
vn -0.578897 0.576575 -0.576575
vn -0.578897 0.576575 -0.576575
vn -0.578898 0.787616 -0.211041
vn -0.578898 0.787616 -0.211041
vn -0.578898 0.787616 -0.211041
vn -0.578898 0.787616 -0.211041
vn -0.578898 0.787616 0.211041
vn -0.578898 0.787616 0.211041
vn -0.578898 0.787616 0.211041
vn -0.578898 0.787616 0.211041
vn -0.578900 0.576574 0.576574
vn -0.578900 0.576574 0.576574
vn -0.578900 0.576574 0.576574
vn -0.578900 0.576574 0.576574
vn -0.578901 0.211041 0.787614
vn -0.578901 0.211041 0.787614
vn -0.578901 0.211041 0.787614
vn -0.578901 0.211041 0.787614
vn -0.578901 -0.211041 0.787614
vn -0.578901 -0.211041 0.787614
vn -0.578901 -0.211041 0.787614
vn -0.578901 -0.211041 0.787614
vn -0.335265 -0.666183 0.666181
vn -0.335265 -0.666183 0.666181
vn -0.335265 -0.666183 0.666181
vn -0.335265 -0.666183 0.666181
vn -0.335265 -0.910022 0.243839
vn -0.335265 -0.910022 0.243839
vn -0.335265 -0.910022 0.243839
vn -0.335265 -0.910022 0.243839
vn -0.335265 -0.910022 -0.243840
vn -0.335265 -0.910022 -0.243840
vn -0.335265 -0.910022 -0.243840
vn -0.335265 -0.910022 -0.243840
vn -0.335265 -0.666183 -0.666181
vn -0.335265 -0.666183 -0.666181
vn -0.335265 -0.666183 -0.666181
vn -0.335265 -0.666183 -0.666181
vn -0.335265 -0.243840 -0.910022
vn -0.335265 -0.243840 -0.910022
vn -0.335265 -0.243840 -0.910022
vn -0.335265 -0.243840 -0.910022
vn -0.335265 0.243840 -0.910022
vn -0.335265 0.243840 -0.910022
vn -0.335265 0.243840 -0.910022
vn -0.335265 0.243840 -0.910022
vn -0.335266 0.666183 -0.666182
vn -0.335266 0.666183 -0.666182
vn -0.335266 0.666183 -0.666182
vn -0.335266 0.666183 -0.666182
vn -0.335266 0.910021 -0.243840
vn -0.335266 0.910021 -0.243840
vn -0.335266 0.910021 -0.243840
vn -0.335266 0.910021 -0.243840
vn -0.335266 0.910022 0.243839
vn -0.335266 0.910022 0.243839
vn -0.335266 0.910022 0.243839
vn -0.335266 0.910022 0.243839
vn -0.335266 0.666183 0.666181
vn -0.335266 0.666183 0.666181
vn -0.335266 0.666183 0.666181
vn -0.335266 0.666183 0.666181
vn -0.335267 0.243840 0.910021
vn -0.335267 0.243840 0.910021
vn -0.335267 0.243840 0.910021
vn -0.335267 0.243840 0.910021
vn -0.335266 -0.243840 0.910021
vn -0.335266 -0.243840 0.910021
vn -0.335266 -0.243840 0.910021
vn -0.335266 -0.243840 0.910021
vn 0.761269 -0.458514 0.458513
vn 0.761269 -0.458514 0.458513
vn 0.761269 -0.458514 0.458513
vn 0.761269 -0.458514 0.458513
vn 0.761268 -0.626343 0.167828
vn 0.761268 -0.626343 0.167828
vn 0.761268 -0.626343 0.167828
vn 0.761268 -0.626343 0.167828
vn 0.761267 -0.626343 -0.167828
vn 0.761267 -0.626343 -0.167828
vn 0.761267 -0.626343 -0.167828
vn 0.761267 -0.626343 -0.167828
vn 0.761266 -0.458517 -0.458515
vn 0.761266 -0.458517 -0.458515
vn 0.761266 -0.458517 -0.458515
vn 0.761266 -0.458517 -0.458515
vn 0.761266 -0.167828 -0.626346
vn 0.761266 -0.167828 -0.626346
vn 0.761266 -0.167828 -0.626346
vn 0.761266 -0.167828 -0.626346
vn 0.761265 0.167827 -0.626346
vn 0.761265 0.167827 -0.626346
vn 0.761265 0.167827 -0.626346
vn 0.761265 0.167827 -0.626346
vn 0.761267 0.458516 -0.458515
vn 0.761267 0.458516 -0.458515
vn 0.761267 0.458516 -0.458515
vn 0.761267 0.458516 -0.458515
vn 0.761268 0.626343 -0.167828
vn 0.761268 0.626343 -0.167828
vn 0.761268 0.626343 -0.167828
vn 0.761268 0.626343 -0.167828
vn 0.761268 0.626342 0.167827
vn 0.761268 0.626342 0.167827
vn 0.761268 0.626342 0.167827
vn 0.761268 0.626342 0.167827
vn 0.761270 0.458514 0.458512
vn 0.761270 0.458514 0.458512
vn 0.761270 0.458514 0.458512
vn 0.761270 0.458514 0.458512
vn 0.761270 0.167828 0.626340
vn 0.761270 0.167828 0.626340
vn 0.761270 0.167828 0.626340
vn 0.761270 0.167828 0.626340
vn 0.761270 -0.167828 0.626340
vn 0.761270 -0.167828 0.626340
vn 0.761270 -0.167828 0.626340
vn 0.761270 -0.167828 0.626340
vn -0.467120 -0.625221 0.625218
vn -0.467120 -0.625221 0.625218
vn -0.467120 -0.625221 0.625218
vn -0.467120 -0.625221 0.625218
vn -0.467120 -0.854066 0.228847
vn -0.467120 -0.854066 0.228847
vn -0.467120 -0.854066 0.228847
vn -0.467120 -0.854066 0.228847
vn -0.467120 -0.854066 -0.228847
vn -0.467120 -0.854066 -0.228847
vn -0.467120 -0.854066 -0.228847
vn -0.467120 -0.854066 -0.228847
vn -0.467121 -0.625221 -0.625217
vn -0.467121 -0.625221 -0.625217
vn -0.467121 -0.625221 -0.625217
vn -0.467121 -0.625221 -0.625217
vn -0.467120 -0.228843 -0.854066
vn -0.467120 -0.228843 -0.854066
vn -0.467120 -0.228843 -0.854066
vn -0.467120 -0.228843 -0.854066
vn -0.467120 0.228843 -0.854066
vn -0.467120 0.228843 -0.854066
vn -0.467120 0.228843 -0.854066
vn -0.467120 0.228843 -0.854066
vn -0.467120 0.625221 -0.625218
vn -0.467120 0.625221 -0.625218
vn -0.467120 0.625221 -0.625218
vn -0.467120 0.625221 -0.625218
vn -0.467119 0.854066 -0.228846
vn -0.467119 0.854066 -0.228846
vn -0.467119 0.854066 -0.228846
vn -0.467119 0.854066 -0.228846
vn -0.467119 0.854066 0.228847
vn -0.467119 0.854066 0.228847
vn -0.467119 0.854066 0.228847
vn -0.467119 0.854066 0.228847
vn -0.467120 0.625221 0.625218
vn -0.467120 0.625221 0.625218
vn -0.467120 0.625221 0.625218
vn -0.467120 0.625221 0.625218
vn -0.467124 0.228847 0.854063
vn -0.467124 0.228847 0.854063
vn -0.467124 0.228847 0.854063
vn -0.467124 0.228847 0.854063
vn -0.467124 -0.228847 0.854063
vn -0.467124 -0.228847 0.854063
vn -0.467124 -0.228847 0.854063
vn -0.467124 -0.228847 0.854063
vn 0.578899 0.576577 0.576572
vn 0.578899 0.576577 0.576572
vn 0.578899 0.576577 0.576572
vn 0.578899 0.576577 0.576572
vn 0.578897 0.787616 0.211041
vn 0.578897 0.787616 0.211041
vn 0.578897 0.787616 0.211041
vn 0.578897 0.787616 0.211041
vn 0.578897 0.787616 -0.211042
vn 0.578897 0.787616 -0.211042
vn 0.578897 0.787616 -0.211042
vn 0.578897 0.787616 -0.211042
vn 0.578895 0.576576 -0.576576
vn 0.578895 0.576576 -0.576576
vn 0.578895 0.576576 -0.576576
vn 0.578895 0.576576 -0.576576
vn 0.578897 0.211042 -0.787617
vn 0.578897 0.211042 -0.787617
vn 0.578897 0.211042 -0.787617
vn 0.578897 0.211042 -0.787617
vn 0.578897 -0.211043 -0.787617
vn 0.578897 -0.211043 -0.787617
vn 0.578897 -0.211043 -0.787617
vn 0.578897 -0.211043 -0.787617
vn 0.578896 -0.576576 -0.576576
vn 0.578896 -0.576576 -0.576576
vn 0.578896 -0.576576 -0.576576
vn 0.578896 -0.576576 -0.576576
vn 0.578899 -0.787615 -0.211042
vn 0.578899 -0.787615 -0.211042
vn 0.578899 -0.787615 -0.211042
vn 0.578899 -0.787615 -0.211042
vn 0.578899 -0.787615 0.211041
vn 0.578899 -0.787615 0.211041
vn 0.578899 -0.787615 0.211041
vn 0.578899 -0.787615 0.211041
vn 0.578899 -0.576576 0.576573
vn 0.578899 -0.576576 0.576573
vn 0.578899 -0.576576 0.576573
vn 0.578899 -0.576576 0.576573
vn 0.578904 -0.211040 0.787612
vn 0.578904 -0.211040 0.787612
vn 0.578904 -0.211040 0.787612
vn 0.578904 -0.211040 0.787612
vn -0.000000 -1.000000 0.000000
vn -0.000000 -1.000000 0.000000
vn -0.000000 -1.000000 0.000000
vn -0.000000 -1.000000 0.000000
vn 0.000000 1.000000 0.000000
vn 0.000000 1.000000 0.000000
vn 0.000000 1.000000 0.000000
vn 0.000000 1.000000 0.000000
vn -0.000000 0.000000 -1.000000
vn -0.000000 0.000000 -1.000000
vn -0.000000 0.000000 -1.000000
vn -0.000000 0.000000 -1.000000
vn 0.000000 0.000000 1.000000
vn 0.000000 0.000000 1.000000
vn 0.000000 0.000000 1.000000
vn 0.000000 0.000000 1.000000
vn -1.000000 0.000000 0.000000
vn -1.000000 0.000000 0.000000
vn -1.000000 0.000000 0.000000
vn -1.000000 0.000000 0.000000
vn 1.000000 -0.000000 -0.000000
vn 1.000000 -0.000000 -0.000000
vn 1.000000 -0.000000 -0.000000
vn 1.000000 -0.000000 -0.000000
vn 0.000001 -0.707110 0.707104
vn 0.000001 -0.707110 0.707104
vn 0.000001 -0.707110 0.707104
vn 0.000001 -0.707110 0.707104
vn 0.000001 -0.965926 0.258820
vn 0.000001 -0.965926 0.258820
vn 0.000001 -0.965926 0.258820
vn 0.000001 -0.965926 0.258820
vn -0.000000 -0.965926 -0.258820
vn -0.000000 -0.965926 -0.258820
vn -0.000000 -0.965926 -0.258820
vn -0.000000 -0.965926 -0.258820
vn -0.000002 -0.707110 -0.707104
vn -0.000002 -0.707110 -0.707104
vn -0.000002 -0.707110 -0.707104
vn -0.000002 -0.707110 -0.707104
vn -0.000004 -0.258815 -0.965927
vn -0.000004 -0.258815 -0.965927
vn -0.000004 -0.258815 -0.965927
vn -0.000004 -0.258815 -0.965927
vn -0.000004 0.258815 -0.965927
vn -0.000004 0.258815 -0.965927
vn -0.000004 0.258815 -0.965927
vn -0.000004 0.258815 -0.965927
vn -0.000002 0.707109 -0.707104
vn -0.000002 0.707109 -0.707104
vn -0.000002 0.707109 -0.707104
vn -0.000002 0.707109 -0.707104
vn -0.000001 0.965926 -0.258819
vn -0.000001 0.965926 -0.258819
vn -0.000001 0.965926 -0.258819
vn -0.000001 0.965926 -0.258819
vn 0.000000 0.965926 0.258820
vn 0.000000 0.965926 0.258820
vn 0.000000 0.965926 0.258820
vn 0.000000 0.965926 0.258820
vn 0.000001 0.707110 0.707104
vn 0.000001 0.707110 0.707104
vn 0.000001 0.707110 0.707104
vn 0.000001 0.707110 0.707104
vn 0.000001 0.258821 0.965925
vn 0.000001 0.258821 0.965925
vn 0.000001 0.258821 0.965925
vn 0.000001 0.258821 0.965925
vn 0.000001 -0.258820 0.965925
vn 0.000001 -0.258820 0.965925
vn 0.000001 -0.258820 0.965925
vn 0.000001 -0.258820 0.965925
vn 0.581423 0.575306 -0.575301
vn 0.581423 0.575306 -0.575301
vn 0.581423 0.575306 -0.575301
vn 0.581423 0.575306 -0.575301
vn 0.581422 0.785879 -0.210577
vn 0.581422 0.785879 -0.210577
vn 0.581422 0.785879 -0.210577
vn 0.581422 0.785879 -0.210577
vn 0.581423 0.785879 0.210576
vn 0.581423 0.785879 0.210576
vn 0.581423 0.785879 0.210576
vn 0.581423 0.785879 0.210576
vn 0.581423 0.575306 0.575301
vn 0.581423 0.575306 0.575301
vn 0.581423 0.575306 0.575301
vn 0.581423 0.575306 0.575301
vn 0.581423 0.210574 0.785879
vn 0.581423 0.210574 0.785879
vn 0.581423 0.210574 0.785879
vn 0.581423 0.210574 0.785879
vn 0.581423 -0.210574 0.785879
vn 0.581423 -0.210574 0.785879
vn 0.581423 -0.210574 0.785879
vn 0.581423 -0.210574 0.785879
vn 0.581423 -0.575305 0.575301
vn 0.581423 -0.575305 0.575301
vn 0.581423 -0.575305 0.575301
vn 0.581423 -0.575305 0.575301
vn 0.581423 -0.785879 0.210575
vn 0.581423 -0.785879 0.210575
vn 0.581423 -0.785879 0.210575
vn 0.581423 -0.785879 0.210575
vn 0.581423 -0.785879 -0.210576
vn 0.581423 -0.785879 -0.210576
vn 0.581423 -0.785879 -0.210576
vn 0.581423 -0.785879 -0.210576
vn 0.581423 -0.575305 -0.575301
vn 0.581423 -0.575305 -0.575301
vn 0.581423 -0.575305 -0.575301
vn 0.581423 -0.575305 -0.575301
vn 0.581423 -0.210576 -0.785878
vn 0.581423 -0.210576 -0.785878
vn 0.581423 -0.210576 -0.785878
vn 0.581423 -0.210576 -0.785878
vn 0.581424 0.210577 -0.785878
vn 0.581424 0.210577 -0.785878
vn 0.581424 0.210577 -0.785878
vn 0.581424 0.210577 -0.785878
vn 1.000000 0.000000 0.000000
vn 1.000000 0.000000 0.000000
vn 1.000000 0.000000 0.000000
vn 1.000000 0.000000 0.000000
vn 1.000000 0.000000 0.000000
vn 1.000000 0.000000 0.000000
vn 1.000000 0.000000 0.000000
vn 1.000000 0.000000 0.000000
vn 1.000000 0.000000 0.000000
vn 1.000000 0.000000 0.000000
vn 1.000000 0.000000 0.000000
vn 1.000000 0.000000 0.000000
vn 0.000004 0.258822 0.965925
vn 0.000004 0.258822 0.965925
vn 0.000004 0.258822 0.965925
vn 0.000004 0.258822 0.965925
vn 0.000004 0.707111 0.707103
vn 0.000004 0.707111 0.707103
vn 0.000004 0.707111 0.707103
vn 0.000004 0.707111 0.707103
vn 0.000003 0.965925 0.258821
vn 0.000003 0.965925 0.258821
vn 0.000003 0.965925 0.258821
vn 0.000003 0.965925 0.258821
vn 0.000001 0.965925 -0.258820
vn 0.000001 0.965925 -0.258820
vn 0.000001 0.965925 -0.258820
vn 0.000001 0.965925 -0.258820
vn -0.000003 0.707107 -0.707106
vn -0.000003 0.707107 -0.707106
vn -0.000003 0.707107 -0.707106
vn -0.000003 0.707107 -0.707106
vn -0.000004 0.258823 -0.965925
vn -0.000004 0.258823 -0.965925
vn -0.000004 0.258823 -0.965925
vn -0.000004 0.258823 -0.965925
vn -0.000005 -0.258823 -0.965925
vn -0.000005 -0.258823 -0.965925
vn -0.000005 -0.258823 -0.965925
vn -0.000005 -0.258823 -0.965925
vn -0.000006 -0.707107 -0.707106
vn -0.000006 -0.707107 -0.707106
vn -0.000006 -0.707107 -0.707106
vn -0.000006 -0.707107 -0.707106
vn -0.000003 -0.965925 -0.258820
vn -0.000003 -0.965925 -0.258820
vn -0.000003 -0.965925 -0.258820
vn -0.000003 -0.965925 -0.258820
vn -0.000001 -0.965925 0.258821
vn -0.000001 -0.965925 0.258821
vn -0.000001 -0.965925 0.258821
vn -0.000001 -0.965925 0.258821
vn 0.000001 -0.707110 0.707103
vn 0.000001 -0.707110 0.707103
vn 0.000001 -0.707110 0.707103
vn 0.000001 -0.707110 0.707103
vn 0.000003 -0.258822 0.965925
vn 0.000003 -0.258822 0.965925
vn 0.000003 -0.258822 0.965925
vn 0.000003 -0.258822 0.965925
vn -1.000000 0.000000 0.000000
vn -1.000000 0.000000 0.000000
vn -1.000000 0.000000 0.000000
vn -1.000000 0.000000 0.000000
vn -1.000000 0.000000 0.000000
vn -1.000000 0.000000 0.000000
vn -1.000000 0.000000 0.000000
vn -1.000000 0.000000 0.000000
vn -1.000000 0.000000 0.000000
vn -1.000000 0.000000 0.000000
vn -1.000000 0.000000 0.000000
vn -1.000000 0.000000 0.000000
vn 0.000001 0.258821 0.965925
vn 0.000001 0.258821 0.965925
vn 0.000001 0.258821 0.965925
vn 0.000001 0.258821 0.965925
vn 0.000001 0.707107 0.707107
vn 0.000001 0.707107 0.707107
vn 0.000001 0.707107 0.707107
vn 0.000001 0.707107 0.707107
vn -0.000000 0.965926 0.258819
vn -0.000000 0.965926 0.258819
vn -0.000000 0.965926 0.258819
vn -0.000000 0.965926 0.258819
vn 0.000000 0.965926 -0.258819
vn 0.000000 0.965926 -0.258819
vn 0.000000 0.965926 -0.258819
vn 0.000000 0.965926 -0.258819
vn 0.000000 0.707107 -0.707106
vn 0.000000 0.707107 -0.707106
vn 0.000000 0.707107 -0.707106
vn 0.000000 0.707107 -0.707106
vn -0.000002 0.258820 -0.965926
vn -0.000002 0.258820 -0.965926
vn -0.000002 0.258820 -0.965926
vn -0.000002 0.258820 -0.965926
vn 0.000001 -0.258820 -0.965926
vn 0.000001 -0.258820 -0.965926
vn 0.000001 -0.258820 -0.965926
vn 0.000001 -0.258820 -0.965926
vn 0.000001 -0.707107 -0.707107
vn 0.000001 -0.707107 -0.707107
vn 0.000001 -0.707107 -0.707107
vn 0.000001 -0.707107 -0.707107
vn 0.000000 -0.965926 -0.258819
vn 0.000000 -0.965926 -0.258819
vn 0.000000 -0.965926 -0.258819
vn 0.000000 -0.965926 -0.258819
vn 0.000000 -0.965926 0.258819
vn 0.000000 -0.965926 0.258819
vn 0.000000 -0.965926 0.258819
vn 0.000000 -0.965926 0.258819
vn 0.000001 -0.707107 0.707107
vn 0.000001 -0.707107 0.707107
vn 0.000001 -0.707107 0.707107
vn 0.000001 -0.707107 0.707107
vn -0.000001 -0.258821 0.965925
vn -0.000001 -0.258821 0.965925
vn -0.000001 -0.258821 0.965925
vn -0.000001 -0.258821 0.965925
vn 0.855439 -0.366212 0.366213
vn 0.855439 -0.366212 0.366213
vn 0.855439 -0.366212 0.366213
vn 0.855439 -0.366212 0.366213
vn -1.000000 -0.000000 0.000000
vn -1.000000 -0.000000 0.000000
vn -1.000000 -0.000000 0.000000
vn -1.000000 -0.000000 0.000000
vn -1.000000 -0.000000 0.000000
vn -1.000000 -0.000000 0.000000
vn -1.000000 -0.000000 0.000000
vn -1.000000 -0.000000 0.000000
vn -1.000000 -0.000000 0.000000
vn -1.000000 -0.000000 0.000000
vn -1.000000 -0.000000 0.000000
vn -1.000000 -0.000000 0.000000
vn 0.855439 -0.500255 0.134044
vn 0.855439 -0.500255 0.134044
vn 0.855439 -0.500255 0.134044
vn 0.855439 -0.500255 0.134044
vn 0.855439 -0.500256 -0.134044
vn 0.855439 -0.500256 -0.134044
vn 0.855439 -0.500256 -0.134044
vn 0.855439 -0.500256 -0.134044
vn 0.855439 -0.366213 -0.366213
vn 0.855439 -0.366213 -0.366213
vn 0.855439 -0.366213 -0.366213
vn 0.855439 -0.366213 -0.366213
vn 0.855440 -0.134045 -0.500255
vn 0.855440 -0.134045 -0.500255
vn 0.855440 -0.134045 -0.500255
vn 0.855440 -0.134045 -0.500255
vn 0.855440 0.134045 -0.500255
vn 0.855440 0.134045 -0.500255
vn 0.855440 0.134045 -0.500255
vn 0.855440 0.134045 -0.500255
vn 0.855440 0.366212 -0.366213
vn 0.855440 0.366212 -0.366213
vn 0.855440 0.366212 -0.366213
vn 0.855440 0.366212 -0.366213
vn 0.855439 0.500256 -0.134043
vn 0.855439 0.500256 -0.134043
vn 0.855439 0.500256 -0.134043
vn 0.855439 0.500256 -0.134043
vn 0.855440 0.500256 0.134043
vn 0.855440 0.500256 0.134043
vn 0.855440 0.500256 0.134043
vn 0.855440 0.500256 0.134043
vn 0.855440 0.366212 0.366213
vn 0.855440 0.366212 0.366213
vn 0.855440 0.366212 0.366213
vn 0.855440 0.366212 0.366213
vn 0.855440 0.134045 0.500255
vn 0.855440 0.134045 0.500255
vn 0.855440 0.134045 0.500255
vn 0.855440 0.134045 0.500255
vn 0.855440 -0.134045 0.500255
vn 0.855440 -0.134045 0.500255
vn 0.855440 -0.134045 0.500255
vn 0.855440 -0.134045 0.500255
vn 1.000000 0.000000 -0.000000
vn 1.000000 0.000000 -0.000000
vn 1.000000 0.000000 -0.000000
vn 1.000000 0.000000 -0.000000
vn 1.000000 0.000000 -0.000000
vn 1.000000 0.000000 -0.000000
vn 1.000000 0.000000 -0.000000
vn 1.000000 0.000000 -0.000000
vn 1.000000 0.000000 -0.000000
vn 1.000000 0.000000 -0.000000
vn 1.000000 0.000000 -0.000000
vn 1.000000 0.000000 -0.000000
f 1//1 2//2 3//3
f 4//4 5//5 6//6
f 7//7 8//8 9//9
f 10//10 11//11 12//12
f 13//13 14//14 15//15
f 16//16 17//17 18//18
f 19//19 20//20 21//21
f 22//22 23//23 24//24
f 25//25 26//26 27//27
f 28//28 29//29 30//30
f 31//31 32//32 33//33
f 34//34 35//35 36//36
f 39//39 40//40 37//37
f 37//37 38//38 39//39
f 43//43 44//44 41//41
f 41//41 42//42 43//43
f 47//47 48//48 45//45
f 45//45 46//46 47//47
f 51//51 52//52 49//49
f 49//49 50//50 51//51
f 55//55 56//56 53//53
f 53//53 54//54 55//55
f 59//59 60//60 57//57
f 57//57 58//58 59//59
f 63//63 64//64 61//61
f 61//61 62//62 63//63
f 67//67 68//68 65//65
f 65//65 66//66 67//67
f 71//71 72//72 69//69
f 69//69 70//70 71//71
f 75//75 76//76 73//73
f 73//73 74//74 75//75
f 79//79 80//80 77//77
f 77//77 78//78 79//79
f 83//83 84//84 81//81
f 81//81 82//82 83//83
f 86//86 88//88 85//85
f 88//88 86//86 87//87
f 90//90 92//92 89//89
f 92//92 90//90 91//91
f 94//94 96//96 93//93
f 96//96 94//94 95//95
f 98//98 100//100 97//97
f 100//100 98//98 99//99
f 103//103 104//104 101//101
f 101//101 102//102 103//103
f 107//107 108//108 105//105
f 105//105 106//106 107//107
f 111//111 112//112 109//109
f 109//109 110//110 111//111
f 115//115 116//116 113//113
f 113//113 114//114 115//115
f 119//119 120//120 117//117
f 117//117 118//118 119//119
f 123//123 124//124 121//121
f 121//121 122//122 123//123
f 126//126 128//128 125//125
f 128//128 126//126 127//127
f 130//130 132//132 129//129
f 132//132 130//130 131//131
f 134//134 136//136 133//133
f 136//136 134//134 135//135
f 138//138 140//140 137//137
f 140//140 138//138 139//139
f 142//142 144//144 141//141
f 144//144 142//142 143//143
f 146//146 148//148 145//145
f 148//148 146//146 147//147
f 150//150 152//152 149//149
f 152//152 150//150 151//151
f 155//155 156//156 153//153
f 153//153 154//154 155//155
f 159//159 160//160 157//157
f 157//157 158//158 159//159
f 163//163 164//164 161//161
f 161//161 162//162 163//163
f 167//167 168//168 165//165
f 165//165 166//166 167//167
f 171//171 172//172 169//169
f 169//169 170//170 171//171
f 174//174 176//176 173//173
f 176//176 174//174 175//175
f 178//178 180//180 177//177
f 180//180 178//178 179//179
f 182//182 184//184 181//181
f 184//184 182//182 183//183
f 186//186 188//188 185//185
f 188//188 186//186 187//187
f 190//190 192//192 189//189
f 192//192 190//190 191//191
f 194//194 196//196 193//193
f 196//196 194//194 195//195
f 198//198 200//200 197//197
f 200//200 198//198 199//199
f 203//203 204//204 201//201
f 201//201 202//202 203//203
f 207//207 208//208 205//205
f 205//205 206//206 207//207
f 211//211 212//212 209//209
f 209//209 210//210 211//211
f 215//215 216//216 213//213
f 213//213 214//214 215//215
f 219//219 220//220 217//217
f 217//217 218//218 219//219
f 223//223 224//224 221//221
f 221//221 222//222 223//223
f 226//226 228//228 225//225
f 228//228 226//226 227//227
f 230//230 232//232 229//229
f 232//232 230//230 231//231
f 234//234 236//236 233//233
f 236//236 234//234 235//235
f 238//238 240//240 237//237
f 240//240 238//238 239//239
f 242//242 244//244 241//241
f 244//244 242//242 243//243
f 247//247 248//248 245//245
f 245//245 246//246 247//247
f 251//251 252//252 249//249
f 249//249 250//250 251//251
f 255//255 256//256 253//253
f 253//253 254//254 255//255
f 259//259 260//260 257//257
f 257//257 258//258 259//259
f 263//263 264//264 261//261
f 261//261 262//262 263//263
f 267//267 268//268 265//265
f 265//265 266//266 267//267
f 270//270 272//272 269//269
f 272//272 270//270 271//271
f 274//274 276//276 273//273
f 276//276 274//274 275//275
f 278//278 280//280 277//277
f 280//280 278//278 279//279
f 282//282 284//284 281//281
f 284//284 282//282 283//283
f 286//286 288//288 285//285
f 288//288 286//286 287//287
f 290//290 292//292 289//289
f 292//292 290//290 291//291
f 295//295 296//296 293//293
f 293//293 294//294 295//295
f 299//299 300//300 297//297
f 297//297 298//298 299//299
f 303//303 304//304 301//301
f 301//301 302//302 303//303
f 307//307 308//308 305//305
f 305//305 306//306 307//307
f 311//311 312//312 309//309
f 309//309 310//310 311//311
f 315//315 316//316 313//313
f 313//313 314//314 315//315
f 318//318 320//320 317//317
f 320//320 318//318 319//319
f 322//322 324//324 321//321
f 324//324 322//322 323//323
f 326//326 328//328 325//325
f 328//328 326//326 327//327
f 330//330 332//332 329//329
f 332//332 330//330 331//331
f 334//334 336//336 333//333
f 336//336 334//334 335//335
f 338//338 340//340 337//337
f 340//340 338//338 339//339
f 342//342 344//344 341//341
f 344//344 342//342 343//343
f 346//346 348//348 345//345
f 348//348 346//346 347//347
f 350//350 352//352 349//349
f 352//352 350//350 351//351
f 354//354 356//356 353//353
f 356//356 354//354 355//355
f 358//358 360//360 357//357
f 360//360 358//358 359//359
f 362//362 364//364 361//361
f 364//364 362//362 363//363
f 366//366 368//368 365//365
f 368//368 366//366 367//367
f 370//370 372//372 369//369
f 372//372 370//370 371//371
f 373//373 374//374 375//375
f 376//376 377//377 378//378
f 379//379 380//380 381//381
f 382//382 383//383 384//384
f 385//385 386//386 387//387
f 388//388 389//389 390//390
f 391//391 392//392 393//393
f 394//394 395//395 396//396
f 397//397 398//398 399//399
f 400//400 401//401 402//402
f 403//403 404//404 405//405
f 406//406 407//407 408//408
f 410//410 412//412 409//409
f 412//412 410//410 411//411
f 414//414 416//416 413//413
f 416//416 414//414 415//415
f 419//419 420//420 417//417
f 417//417 418//418 419//419
f 423//423 424//424 421//421
f 421//421 422//422 423//423
f 427//427 428//428 425//425
f 425//425 426//426 427//427
f 431//431 432//432 429//429
f 429//429 430//430 431//431
f 435//435 436//436 433//433
f 433//433 434//434 435//435
f 439//439 440//440 437//437
f 437//437 438//438 439//439
f 442//442 444//444 441//441
f 444//444 442//442 443//443
f 446//446 448//448 445//445
f 448//448 446//446 447//447
f 450//450 452//452 449//449
f 452//452 450//450 451//451
f 454//454 456//456 453//453
f 456//456 454//454 455//455
f 458//458 460//460 457//457
f 460//460 458//458 459//459
f 462//462 464//464 461//461
f 464//464 462//462 463//463
f 466//466 468//468 465//465
f 468//468 466//466 467//467
f 470//470 472//472 469//469
f 472//472 470//470 471//471
f 474//474 476//476 473//473
f 476//476 474//474 475//475
f 479//479 480//480 477//477
f 477//477 478//478 479//479
f 483//483 484//484 481//481
f 481//481 482//482 483//483
f 487//487 488//488 485//485
f 485//485 486//486 487//487
f 491//491 492//492 489//489
f 489//489 490//490 491//491
f 495//495 496//496 493//493
f 493//493 494//494 495//495
f 499//499 500//500 497//497
f 497//497 498//498 499//499
f 502//502 504//504 501//501
f 504//504 502//502 503//503
f 506//506 508//508 505//505
f 508//508 506//506 507//507
f 510//510 512//512 509//509
f 512//512 510//510 511//511
f 514//514 516//516 513//513
f 516//516 514//514 515//515
f 518//518 520//520 517//517
f 520//520 518//518 519//519
f 523//523 524//524 521//521
f 521//521 522//522 523//523
f 527//527 528//528 525//525
f 525//525 526//526 527//527
f 531//531 532//532 529//529
f 529//529 530//530 531//531
f 535//535 536//536 533//533
f 533//533 534//534 535//535
f 539//539 540//540 537//537
f 537//537 538//538 539//539
f 543//543 544//544 541//541
f 541//541 542//542 543//543
f 546//546 548//548 545//545
f 548//548 546//546 547//547
f 550//550 552//552 549//549
f 552//552 550//550 551//551
f 554//554 556//556 553//553
f 556//556 554//554 555//555
f 559//559 560//560 557//557
f 557//557 558//558 559//559
f 563//563 564//564 561//561
f 561//561 562//562 563//563
f 567//567 568//568 565//565
f 565//565 566//566 567//567
f 571//571 572//572 569//569
f 569//569 570//570 571//571
f 575//575 576//576 573//573
f 573//573 574//574 575//575
f 579//579 580//580 577//577
f 577//577 578//578 579//579
f 583//583 584//584 581//581
f 581//581 582//582 583//583
f 587//587 588//588 585//585
f 585//585 586//586 587//587
f 591//591 592//592 589//589
f 589//589 590//590 591//591
f 595//595 596//596 593//593
f 593//593 594//594 595//595
f 599//599 600//600 597//597
f 597//597 598//598 599//599
f 603//603 604//604 601//601
f 601//601 602//602 603//603
f 606//606 608//608 605//605
f 608//608 606//606 607//607
f 610//610 612//612 609//609
f 612//612 610//610 611//611
f 614//614 616//616 613//613
f 616//616 614//614 615//615
f 618//618 620//620 617//617
f 620//620 618//618 619//619
f 623//623 624//624 621//621
f 621//621 622//622 623//623
f 627//627 628//628 625//625
f 625//625 626//626 627//627
f 631//631 632//632 629//629
f 629//629 630//630 631//631
f 635//635 636//636 633//633
f 633//633 634//634 635//635
f 639//639 640//640 637//637
f 637//637 638//638 639//639
f 643//643 644//644 641//641
f 641//641 642//642 643//643
f 646//646 648//648 645//645
f 648//648 646//646 647//647
f 650//650 652//652 649//649
f 652//652 650//650 651//651
f 655//655 656//656 653//653
f 653//653 654//654 655//655
f 659//659 660//660 657//657
f 657//657 658//658 659//659
f 663//663 664//664 661//661
f 661//661 662//662 663//663
f 667//667 668//668 665//665
f 665//665 666//666 667//667
f 671//671 672//672 669//669
f 669//669 670//670 671//671
f 675//675 676//676 673//673
f 673//673 674//674 675//675
f 679//679 680//680 677//677
f 677//677 678//678 679//679
f 682//682 684//684 681//681
f 684//684 682//682 683//683
f 686//686 688//688 685//685
f 688//688 686//686 687//687
f 690//690 692//692 689//689
f 692//692 690//690 691//691
f 694//694 696//696 693//693
f 696//696 694//694 695//695
f 698//698 700//700 697//697
f 700//700 698//698 699//699
f 703//703 704//704 701//701
f 701//701 702//702 703//703
f 707//707 708//708 705//705
f 705//705 706//706 707//707
f 710//710 712//712 709//709
f 712//712 710//710 711//711
f 714//714 716//716 713//713
f 716//716 714//714 715//715
f 719//719 720//720 717//717
f 717//717 718//718 719//719
f 722//722 724//724 721//721
f 724//724 722//722 723//723
f 726//726 728//728 725//725
f 728//728 726//726 727//727
f 730//730 732//732 729//729
f 732//732 730//730 731//731
f 734//734 736//736 733//733
f 736//736 734//734 735//735
f 739//739 740//740 737//737
f 737//737 738//738 739//739
f 743//743 744//744 741//741
f 741//741 742//742 743//743
f 747//747 748//748 745//745
f 745//745 746//746 747//747
f 751//751 752//752 749//749
f 749//749 750//750 751//751
f 755//755 756//756 753//753
f 753//753 754//754 755//755
f 759//759 760//760 757//757
f 757//757 758//758 759//759
f 762//762 764//764 761//761
f 764//764 762//762 763//763
f 766//766 768//768 765//765
f 768//768 766//766 767//767
f 771//771 772//772 769//769
f 769//769 770//770 771//771
f 775//775 776//776 773//773
f 773//773 774//774 775//775
f 779//779 780//780 777//777
f 777//777 778//778 779//779
f 782//782 784//784 781//781
f 784//784 782//782 783//783
f 786//786 788//788 785//785
f 788//788 786//786 787//787
f 790//790 792//792 789//789
f 792//792 790//790 791//791
f 794//794 796//796 793//793
f 796//796 794//794 795//795
f 798//798 800//800 797//797
f 800//800 798//798 799//799
f 802//802 804//804 801//801
f 804//804 802//802 803//803
f 806//806 808//808 805//805
f 808//808 806//806 807//807
f 811//811 812//812 809//809
f 809//809 810//810 811//811
f 815//815 816//816 813//813
f 813//813 814//814 815//815
f 827//827 828//828 817//817
f 817//817 818//818 819//819
f 819//819 820//820 821//821
f 821//821 822//822 823//823
f 823//823 824//824 825//825
f 825//825 826//826 827//827
f 827//827 817//817 819//819
f 819//819 821//821 823//823
f 823//823 825//825 827//827
f 827//827 819//819 823//823
f 830//830 832//832 829//829
f 832//832 830//830 831//831
f 835//835 836//836 833//833
f 833//833 834//834 835//835
f 839//839 840//840 837//837
f 837//837 838//838 839//839
f 843//843 844//844 841//841
f 841//841 842//842 843//843
f 847//847 848//848 845//845
f 845//845 846//846 847//847
f 851//851 852//852 849//849
f 849//849 850//850 851//851
f 855//855 856//856 853//853
f 853//853 854//854 855//855
f 858//858 860//860 857//857
f 860//860 858//858 859//859
f 862//862 864//864 861//861
f 864//864 862//862 863//863
f 866//866 868//868 865//865
f 868//868 866//866 867//867
f 870//870 872//872 869//869
f 872//872 870//870 871//871
f 874//874 876//876 873//873
f 876//876 874//874 875//875
f 878//878 888//888 877//877
f 888//888 886//886 887//887
f 886//886 884//884 885//885
f 884//884 882//882 883//883
f 882//882 880//880 881//881
f 880//880 878//878 879//879
f 878//878 886//886 888//888
f 886//886 882//882 884//884
f 882//882 878//878 880//880
f 878//878 882//882 886//886
f 890//890 892//892 889//889
f 892//892 890//890 891//891
f 895//895 896//896 893//893
f 893//893 894//894 895//895
f 899//899 900//900 897//897
f 897//897 898//898 899//899
f 903//903 904//904 901//901
f 901//901 902//902 903//903
f 907//907 908//908 905//905
f 905//905 906//906 907//907
f 911//911 912//912 909//909
f 909//909 910//910 911//911
f 915//915 916//916 913//913
f 913//913 914//914 915//915
f 918//918 920//920 917//917
f 920//920 918//918 919//919
f 922//922 924//924 921//921
f 924//924 922//922 923//923
f 926//926 928//928 925//925
f 928//928 926//926 927//927
f 930//930 932//932 929//929
f 932//932 930//930 931//931
f 934//934 936//936 933//933
f 936//936 934//934 935//935
f 939//939 940//940 937//937
f 937//937 938//938 939//939
f 942//942 952//952 941//941
f 952//952 950//950 951//951
f 950//950 948//948 949//949
f 948//948 946//946 947//947
f 946//946 944//944 945//945
f 944//944 942//942 943//943
f 942//942 950//950 952//952
f 950//950 946//946 948//948
f 946//946 942//942 944//944
f 942//942 946//946 950//950
f 955//955 956//956 953//953
f 953//953 954//954 955//955
f 959//959 960//960 957//957
f 957//957 958//958 959//959
f 963//963 964//964 961//961
f 961//961 962//962 963//963
f 967//967 968//968 965//965
f 965//965 966//966 967//967
f 971//971 972//972 969//969
f 969//969 970//970 971//971
f 975//975 976//976 973//973
f 973//973 974//974 975//975
f 979//979 980//980 977//977
f 977//977 978//978 979//979
f 983//983 984//984 981//981
f 981//981 982//982 983//983
f 987//987 988//988 985//985
f 985//985 986//986 987//987
f 991//991 992//992 989//989
f 989//989 990//990 991//991
f 995//995 996//996 993//993
f 993//993 994//994 995//995
f 1007//1007 1008//1008 997//997
f 997//997 998//998 999//999
f 999//999 1000//1000 1001//1001
f 1001//1001 1002//1002 1003//1003
f 1003//1003 1004//1004 1005//1005
f 1005//1005 1006//1006 1007//1007
f 1007//1007 997//997 999//999
f 999//999 1001//1001 1003//1003
f 1003//1003 1005//1005 1007//1007
f 1007//1007 999//999 1003//1003
